<mxfile host="app.diagrams.net" modified="2024-04-28T11:22:10.908Z" agent="Mozilla/5.0 (Windows NT 10.0; Win64; x64) AppleWebKit/537.36 (KHTML, like Gecko) Chrome/124.0.0.0 Safari/537.36" etag="FoNR5WTn2FHpm9xEF1rM" version="24.3.1" type="device" pages="5">
  <diagram name="use case" id="5Z7GRD1dcXjmVU25RNx_">
    <mxGraphModel dx="1584" dy="1892" grid="1" gridSize="10" guides="1" tooltips="1" connect="1" arrows="1" fold="1" page="1" pageScale="1" pageWidth="827" pageHeight="1169" math="0" shadow="0">
      <root>
        <mxCell id="0" />
        <mxCell id="1" parent="0" />
        <mxCell id="9x_Ym02SP-sz1YcaGnDO-1" value="" style="rounded=0;whiteSpace=wrap;html=1;" parent="1" vertex="1">
          <mxGeometry x="244" y="-1040" width="446" height="440" as="geometry" />
        </mxCell>
        <mxCell id="9x_Ym02SP-sz1YcaGnDO-10" value="Finease" style="text;html=1;align=center;verticalAlign=middle;resizable=0;points=[];autosize=1;strokeColor=none;fillColor=none;fontStyle=1;fontSize=17;" parent="1" vertex="1">
          <mxGeometry x="244" y="-1070" width="90" height="30" as="geometry" />
        </mxCell>
        <mxCell id="9x_Ym02SP-sz1YcaGnDO-12" value="Transfer Fund" style="ellipse;whiteSpace=wrap;html=1;" parent="1" vertex="1">
          <mxGeometry x="449.99999999999994" y="-695.8171428571429" width="85" height="35" as="geometry" />
        </mxCell>
        <mxCell id="9x_Ym02SP-sz1YcaGnDO-13" value="Check Transaction History" style="ellipse;whiteSpace=wrap;html=1;" parent="1" vertex="1">
          <mxGeometry x="310" y="-660.81" width="85" height="50.81" as="geometry" />
        </mxCell>
        <mxCell id="9x_Ym02SP-sz1YcaGnDO-15" value="Deposit" style="ellipse;whiteSpace=wrap;html=1;" parent="1" vertex="1">
          <mxGeometry x="450.0037563451778" y="-779.9999999999998" width="85" height="35" as="geometry" />
        </mxCell>
        <mxCell id="9x_Ym02SP-sz1YcaGnDO-17" value="Screen Reader" style="ellipse;whiteSpace=wrap;html=1;" parent="1" vertex="1">
          <mxGeometry x="424.5023076923077" y="-900.0037437759943" width="85" height="35" as="geometry" />
        </mxCell>
        <mxCell id="9x_Ym02SP-sz1YcaGnDO-21" value="Modify Profile" style="ellipse;whiteSpace=wrap;html=1;" parent="1" vertex="1">
          <mxGeometry x="310.0022842639595" y="-757.0028571428572" width="85" height="35" as="geometry" />
        </mxCell>
        <mxCell id="9x_Ym02SP-sz1YcaGnDO-23" value="Withdraw" style="ellipse;whiteSpace=wrap;html=1;" parent="1" vertex="1">
          <mxGeometry x="449.99999999999994" y="-737" width="85" height="35" as="geometry" />
        </mxCell>
        <mxCell id="9x_Ym02SP-sz1YcaGnDO-25" value="Login" style="ellipse;whiteSpace=wrap;html=1;" parent="1" vertex="1">
          <mxGeometry x="424.5" y="-985" width="85" height="35" as="geometry" />
        </mxCell>
        <mxCell id="9x_Ym02SP-sz1YcaGnDO-26" value="Register" style="ellipse;whiteSpace=wrap;html=1;" parent="1" vertex="1">
          <mxGeometry x="310" y="-799.9983576818108" width="85" height="35" as="geometry" />
        </mxCell>
        <mxCell id="9x_Ym02SP-sz1YcaGnDO-27" value="Logout" style="ellipse;whiteSpace=wrap;html=1;" parent="1" vertex="1">
          <mxGeometry x="424.5048847026196" y="-941" width="85" height="35" as="geometry" />
        </mxCell>
        <mxCell id="9x_Ym02SP-sz1YcaGnDO-31" style="rounded=0;orthogonalLoop=1;jettySize=auto;html=1;endArrow=none;endFill=0;" parent="1" source="9x_Ym02SP-sz1YcaGnDO-35" target="9x_Ym02SP-sz1YcaGnDO-21" edge="1">
          <mxGeometry relative="1" as="geometry" />
        </mxCell>
        <mxCell id="9x_Ym02SP-sz1YcaGnDO-32" style="rounded=0;orthogonalLoop=1;jettySize=auto;html=1;endArrow=none;endFill=0;" parent="1" source="9x_Ym02SP-sz1YcaGnDO-35" target="9x_Ym02SP-sz1YcaGnDO-25" edge="1">
          <mxGeometry relative="1" as="geometry" />
        </mxCell>
        <mxCell id="9x_Ym02SP-sz1YcaGnDO-33" style="rounded=0;orthogonalLoop=1;jettySize=auto;html=1;endArrow=none;endFill=0;" parent="1" source="9x_Ym02SP-sz1YcaGnDO-35" target="9x_Ym02SP-sz1YcaGnDO-26" edge="1">
          <mxGeometry relative="1" as="geometry" />
        </mxCell>
        <mxCell id="9x_Ym02SP-sz1YcaGnDO-34" style="rounded=0;orthogonalLoop=1;jettySize=auto;html=1;endArrow=none;endFill=0;" parent="1" source="9x_Ym02SP-sz1YcaGnDO-35" target="9x_Ym02SP-sz1YcaGnDO-27" edge="1">
          <mxGeometry relative="1" as="geometry" />
        </mxCell>
        <mxCell id="9x_Ym02SP-sz1YcaGnDO-41" style="rounded=0;orthogonalLoop=1;jettySize=auto;html=1;endArrow=none;endFill=0;" parent="1" source="9x_Ym02SP-sz1YcaGnDO-35" target="9x_Ym02SP-sz1YcaGnDO-17" edge="1">
          <mxGeometry relative="1" as="geometry" />
        </mxCell>
        <mxCell id="9x_Ym02SP-sz1YcaGnDO-46" style="rounded=0;orthogonalLoop=1;jettySize=auto;html=1;endArrow=none;endFill=0;startArrow=classic;startFill=1;dashed=1;" parent="1" source="9x_Ym02SP-sz1YcaGnDO-50" target="9x_Ym02SP-sz1YcaGnDO-15" edge="1">
          <mxGeometry relative="1" as="geometry" />
        </mxCell>
        <mxCell id="9x_Ym02SP-sz1YcaGnDO-52" value="Extend" style="edgeLabel;html=1;align=center;verticalAlign=middle;resizable=0;points=[];labelBackgroundColor=default;" parent="9x_Ym02SP-sz1YcaGnDO-46" vertex="1" connectable="0">
          <mxGeometry x="0.2964" y="1" relative="1" as="geometry">
            <mxPoint x="-3" as="offset" />
          </mxGeometry>
        </mxCell>
        <mxCell id="9x_Ym02SP-sz1YcaGnDO-47" style="rounded=0;orthogonalLoop=1;jettySize=auto;html=1;endArrow=none;endFill=0;startArrow=classic;startFill=1;dashed=1;" parent="1" source="9x_Ym02SP-sz1YcaGnDO-50" target="9x_Ym02SP-sz1YcaGnDO-23" edge="1">
          <mxGeometry relative="1" as="geometry" />
        </mxCell>
        <mxCell id="9x_Ym02SP-sz1YcaGnDO-53" value="Extend" style="edgeLabel;html=1;align=center;verticalAlign=middle;resizable=0;points=[];labelBackgroundColor=default;" parent="9x_Ym02SP-sz1YcaGnDO-47" vertex="1" connectable="0">
          <mxGeometry x="0.3095" y="2" relative="1" as="geometry">
            <mxPoint x="-3" as="offset" />
          </mxGeometry>
        </mxCell>
        <mxCell id="9x_Ym02SP-sz1YcaGnDO-35" value="Customer" style="shape=umlActor;html=1;verticalLabelPosition=bottom;verticalAlign=top;align=center;" parent="1" vertex="1">
          <mxGeometry x="200" y="-831" width="30" height="60" as="geometry" />
        </mxCell>
        <mxCell id="9x_Ym02SP-sz1YcaGnDO-50" value="Dashboard" style="ellipse;whiteSpace=wrap;html=1;" parent="1" vertex="1">
          <mxGeometry x="310.0022842639595" y="-709.2928571428572" width="85" height="35" as="geometry" />
        </mxCell>
        <mxCell id="9x_Ym02SP-sz1YcaGnDO-49" style="rounded=0;orthogonalLoop=1;jettySize=auto;html=1;endArrow=none;endFill=0;entryX=0;entryY=0;entryDx=0;entryDy=0;" parent="1" source="9x_Ym02SP-sz1YcaGnDO-35" target="9x_Ym02SP-sz1YcaGnDO-50" edge="1">
          <mxGeometry relative="1" as="geometry" />
        </mxCell>
        <mxCell id="9x_Ym02SP-sz1YcaGnDO-51" style="rounded=0;orthogonalLoop=1;jettySize=auto;html=1;endArrow=none;endFill=0;startArrow=classic;startFill=1;dashed=1;" parent="1" source="9x_Ym02SP-sz1YcaGnDO-50" target="9x_Ym02SP-sz1YcaGnDO-12" edge="1">
          <mxGeometry relative="1" as="geometry">
            <mxPoint x="371" y="-705.81" as="sourcePoint" />
            <mxPoint x="444" y="-690.81" as="targetPoint" />
          </mxGeometry>
        </mxCell>
        <mxCell id="9x_Ym02SP-sz1YcaGnDO-54" value="Extend" style="edgeLabel;html=1;align=center;verticalAlign=middle;resizable=0;points=[];labelBackgroundColor=default;" parent="9x_Ym02SP-sz1YcaGnDO-51" vertex="1" connectable="0">
          <mxGeometry x="0.5563" y="-1" relative="1" as="geometry">
            <mxPoint x="-11" y="-2" as="offset" />
          </mxGeometry>
        </mxCell>
        <mxCell id="_2KLgmTA-r66h2Z7l9V5-5" value="Webpage customisation" style="ellipse;whiteSpace=wrap;html=1;" parent="1" vertex="1">
          <mxGeometry x="424.5023076923077" y="-858.0037437759943" width="85" height="35" as="geometry" />
        </mxCell>
        <mxCell id="t1OmpYjroC_1VnkZcsIv-3" style="rounded=0;orthogonalLoop=1;jettySize=auto;html=1;endArrow=none;endFill=0;" parent="1" target="9x_Ym02SP-sz1YcaGnDO-25" edge="1">
          <mxGeometry relative="1" as="geometry">
            <mxPoint x="710" y="-820" as="sourcePoint" />
          </mxGeometry>
        </mxCell>
        <mxCell id="t1OmpYjroC_1VnkZcsIv-4" style="rounded=0;orthogonalLoop=1;jettySize=auto;html=1;entryX=1;entryY=0.5;entryDx=0;entryDy=0;endArrow=none;endFill=0;" parent="1" target="9x_Ym02SP-sz1YcaGnDO-27" edge="1">
          <mxGeometry relative="1" as="geometry">
            <mxPoint x="710" y="-810" as="sourcePoint" />
          </mxGeometry>
        </mxCell>
        <mxCell id="t1OmpYjroC_1VnkZcsIv-7" style="rounded=0;orthogonalLoop=1;jettySize=auto;html=1;endArrow=none;endFill=0;entryX=0.927;entryY=0.242;entryDx=0;entryDy=0;entryPerimeter=0;" parent="1" source="t1OmpYjroC_1VnkZcsIv-1" target="t1OmpYjroC_1VnkZcsIv-6" edge="1">
          <mxGeometry relative="1" as="geometry" />
        </mxCell>
        <mxCell id="t1OmpYjroC_1VnkZcsIv-1" value="Admin" style="shape=umlActor;html=1;verticalLabelPosition=bottom;verticalAlign=top;align=center;" parent="1" vertex="1">
          <mxGeometry x="710" y="-831" width="30" height="60" as="geometry" />
        </mxCell>
        <mxCell id="t1OmpYjroC_1VnkZcsIv-5" style="rounded=0;orthogonalLoop=1;jettySize=auto;html=1;endArrow=none;endFill=0;" parent="1" source="t1OmpYjroC_1VnkZcsIv-1" target="9x_Ym02SP-sz1YcaGnDO-17" edge="1">
          <mxGeometry relative="1" as="geometry">
            <mxPoint x="810" y="-830" as="sourcePoint" />
            <mxPoint x="545" y="-922" as="targetPoint" />
          </mxGeometry>
        </mxCell>
        <mxCell id="t1OmpYjroC_1VnkZcsIv-6" value="Manage User" style="ellipse;whiteSpace=wrap;html=1;" parent="1" vertex="1">
          <mxGeometry x="559.5" y="-800" width="85" height="35" as="geometry" />
        </mxCell>
        <mxCell id="t1OmpYjroC_1VnkZcsIv-8" value="Activity Log" style="ellipse;whiteSpace=wrap;html=1;" parent="1" vertex="1">
          <mxGeometry x="560" y="-757.0000000000001" width="85" height="35" as="geometry" />
        </mxCell>
        <mxCell id="t1OmpYjroC_1VnkZcsIv-9" style="rounded=0;orthogonalLoop=1;jettySize=auto;html=1;endArrow=none;endFill=0;entryX=1;entryY=0;entryDx=0;entryDy=0;" parent="1" source="t1OmpYjroC_1VnkZcsIv-1" target="t1OmpYjroC_1VnkZcsIv-8" edge="1">
          <mxGeometry relative="1" as="geometry">
            <mxPoint x="740" y="-784.82" as="sourcePoint" />
          </mxGeometry>
        </mxCell>
        <mxCell id="t1OmpYjroC_1VnkZcsIv-11" style="rounded=0;orthogonalLoop=1;jettySize=auto;html=1;endArrow=none;endFill=0;exitX=0.933;exitY=0.302;exitDx=0;exitDy=0;exitPerimeter=0;" parent="1" source="t1OmpYjroC_1VnkZcsIv-10" target="t1OmpYjroC_1VnkZcsIv-1" edge="1">
          <mxGeometry relative="1" as="geometry" />
        </mxCell>
        <mxCell id="t1OmpYjroC_1VnkZcsIv-10" value="System Report" style="ellipse;whiteSpace=wrap;html=1;" parent="1" vertex="1">
          <mxGeometry x="559.5" y="-709.2900000000001" width="85" height="35" as="geometry" />
        </mxCell>
        <mxCell id="QNvHhlSSxgZlak55KMsJ-1" value="Bank Info" style="ellipse;whiteSpace=wrap;html=1;" parent="1" vertex="1">
          <mxGeometry x="424.5022842639595" y="-1030.0028571428572" width="85" height="35" as="geometry" />
        </mxCell>
        <mxCell id="QNvHhlSSxgZlak55KMsJ-2" style="rounded=0;orthogonalLoop=1;jettySize=auto;html=1;endArrow=none;endFill=0;entryX=0;entryY=1;entryDx=0;entryDy=0;" parent="1" source="9x_Ym02SP-sz1YcaGnDO-35" target="QNvHhlSSxgZlak55KMsJ-1" edge="1">
          <mxGeometry relative="1" as="geometry">
            <mxPoint x="240" y="-777" as="sourcePoint" />
            <mxPoint x="332" y="-694" as="targetPoint" />
          </mxGeometry>
        </mxCell>
        <mxCell id="QNvHhlSSxgZlak55KMsJ-3" style="rounded=0;orthogonalLoop=1;jettySize=auto;html=1;endArrow=none;endFill=0;exitX=0;exitY=0.017;exitDx=0;exitDy=0;exitPerimeter=0;entryX=1;entryY=1;entryDx=0;entryDy=0;" parent="1" source="t1OmpYjroC_1VnkZcsIv-1" target="QNvHhlSSxgZlak55KMsJ-1" edge="1">
          <mxGeometry relative="1" as="geometry">
            <mxPoint x="712.95" y="-840" as="sourcePoint" />
            <mxPoint x="510.0043224643877" y="-1000.1284884720926" as="targetPoint" />
          </mxGeometry>
        </mxCell>
        <mxCell id="M_wvlL9si8cJdB-P9Qwn-1" style="rounded=0;orthogonalLoop=1;jettySize=auto;html=1;endArrow=none;endFill=0;entryX=0;entryY=0;entryDx=0;entryDy=0;" parent="1" source="9x_Ym02SP-sz1YcaGnDO-35" target="9x_Ym02SP-sz1YcaGnDO-13" edge="1">
          <mxGeometry relative="1" as="geometry">
            <mxPoint x="240" y="-777" as="sourcePoint" />
            <mxPoint x="332" y="-694" as="targetPoint" />
          </mxGeometry>
        </mxCell>
        <mxCell id="BqGQ5h2_HaqEVGaS0j7y-1" style="rounded=0;orthogonalLoop=1;jettySize=auto;html=1;endArrow=none;endFill=0;" parent="1" source="9x_Ym02SP-sz1YcaGnDO-35" target="_2KLgmTA-r66h2Z7l9V5-5" edge="1">
          <mxGeometry relative="1" as="geometry">
            <mxPoint x="240" y="-800" as="sourcePoint" />
            <mxPoint x="444" y="-866" as="targetPoint" />
          </mxGeometry>
        </mxCell>
        <mxCell id="BqGQ5h2_HaqEVGaS0j7y-2" style="rounded=0;orthogonalLoop=1;jettySize=auto;html=1;endArrow=none;endFill=0;" parent="1" source="t1OmpYjroC_1VnkZcsIv-1" target="_2KLgmTA-r66h2Z7l9V5-5" edge="1">
          <mxGeometry relative="1" as="geometry">
            <mxPoint x="240" y="-793" as="sourcePoint" />
            <mxPoint x="436" y="-817" as="targetPoint" />
          </mxGeometry>
        </mxCell>
      </root>
    </mxGraphModel>
  </diagram>
  <diagram id="8EkkWgLpx2uiuD_6quIL" name="System Architecture">
    <mxGraphModel dx="2434" dy="723" grid="1" gridSize="10" guides="1" tooltips="1" connect="1" arrows="1" fold="1" page="1" pageScale="1" pageWidth="850" pageHeight="1100" math="0" shadow="0">
      <root>
        <mxCell id="0" />
        <mxCell id="1" parent="0" />
        <mxCell id="201Y617eYST6EXYn0ONy-47" value="" style="rounded=1;whiteSpace=wrap;html=1;" parent="1" vertex="1">
          <mxGeometry x="-333" y="420" width="114" height="110" as="geometry" />
        </mxCell>
        <mxCell id="201Y617eYST6EXYn0ONy-1" value="" style="rounded=1;whiteSpace=wrap;html=1;fillColor=#fff2cc;strokeColor=#000000;" parent="1" vertex="1">
          <mxGeometry x="-467" y="110" width="160" height="280" as="geometry" />
        </mxCell>
        <mxCell id="201Y617eYST6EXYn0ONy-2" value="" style="rounded=1;whiteSpace=wrap;html=1;fillColor=#f8cecc;strokeColor=#000000;" parent="1" vertex="1">
          <mxGeometry x="-234" y="290" width="135" height="100" as="geometry" />
        </mxCell>
        <mxCell id="201Y617eYST6EXYn0ONy-3" value="" style="rounded=1;whiteSpace=wrap;html=1;fillColor=#d5e8d4;strokeColor=#000000;glass=0;shadow=0;" parent="1" vertex="1">
          <mxGeometry x="-708" y="110" width="160.7" height="280" as="geometry" />
        </mxCell>
        <mxCell id="201Y617eYST6EXYn0ONy-4" value="" style="image;aspect=fixed;perimeter=ellipsePerimeter;html=1;align=center;shadow=0;dashed=0;spacingTop=3;image=img/lib/active_directory/laptop_client.svg;" parent="1" vertex="1">
          <mxGeometry x="-663.6500000000001" y="130" width="72" height="80" as="geometry" />
        </mxCell>
        <mxCell id="201Y617eYST6EXYn0ONy-5" value="Presentation / Client" style="text;html=1;align=center;verticalAlign=middle;resizable=0;points=[];autosize=1;strokeColor=none;fillColor=none;fontStyle=1" parent="1" vertex="1">
          <mxGeometry x="-692.1500000000001" y="202" width="130" height="30" as="geometry" />
        </mxCell>
        <mxCell id="201Y617eYST6EXYn0ONy-6" style="edgeStyle=orthogonalEdgeStyle;rounded=0;orthogonalLoop=1;jettySize=auto;html=1;exitX=0.75;exitY=0;exitDx=0;exitDy=0;entryX=0.75;entryY=1;entryDx=0;entryDy=0;" parent="1" source="201Y617eYST6EXYn0ONy-7" target="201Y617eYST6EXYn0ONy-9" edge="1">
          <mxGeometry relative="1" as="geometry">
            <Array as="points">
              <mxPoint x="-601" y="338" />
              <mxPoint x="-600" y="338" />
            </Array>
          </mxGeometry>
        </mxCell>
        <mxCell id="201Y617eYST6EXYn0ONy-7" value="Interface Layer" style="rounded=1;whiteSpace=wrap;html=1;" parent="1" vertex="1">
          <mxGeometry x="-680.1000000000001" y="335.62" width="104.9" height="35" as="geometry" />
        </mxCell>
        <mxCell id="201Y617eYST6EXYn0ONy-8" style="edgeStyle=orthogonalEdgeStyle;rounded=0;orthogonalLoop=1;jettySize=auto;html=1;exitX=0.25;exitY=1;exitDx=0;exitDy=0;entryX=0.25;entryY=0;entryDx=0;entryDy=0;" parent="1" source="201Y617eYST6EXYn0ONy-9" target="201Y617eYST6EXYn0ONy-7" edge="1">
          <mxGeometry relative="1" as="geometry">
            <Array as="points">
              <mxPoint x="-654" y="289" />
            </Array>
          </mxGeometry>
        </mxCell>
        <mxCell id="201Y617eYST6EXYn0ONy-9" value="&lt;span style=&quot;color: rgb(0, 0, 0); font-family: Helvetica; font-size: 12px; font-style: normal; font-variant-ligatures: normal; font-variant-caps: normal; font-weight: 400; letter-spacing: normal; orphans: 2; text-align: center; text-indent: 0px; text-transform: none; widows: 2; word-spacing: 0px; -webkit-text-stroke-width: 0px; background-color: rgb(251, 251, 251); text-decoration-thickness: initial; text-decoration-style: initial; text-decoration-color: initial; float: none; display: inline !important;&quot;&gt;GUI Layer&lt;/span&gt;" style="rounded=1;whiteSpace=wrap;html=1;" parent="1" vertex="1">
          <mxGeometry x="-682.75" y="253.12" width="110.2" height="35.88" as="geometry" />
        </mxCell>
        <mxCell id="201Y617eYST6EXYn0ONy-11" value="Data Tier" style="rounded=1;whiteSpace=wrap;html=1;" parent="1" vertex="1">
          <mxGeometry x="-221.5" y="334" width="110" height="35" as="geometry" />
        </mxCell>
        <mxCell id="201Y617eYST6EXYn0ONy-39" style="edgeStyle=orthogonalEdgeStyle;rounded=0;orthogonalLoop=1;jettySize=auto;html=1;startArrow=classic;startFill=1;exitX=1;exitY=0.5;exitDx=0;exitDy=0;" parent="1" source="201Y617eYST6EXYn0ONy-36" edge="1">
          <mxGeometry relative="1" as="geometry">
            <mxPoint x="-166" y="390" as="targetPoint" />
          </mxGeometry>
        </mxCell>
        <mxCell id="201Y617eYST6EXYn0ONy-17" value="request" style="text;html=1;align=center;verticalAlign=middle;resizable=0;points=[];autosize=1;strokeColor=none;fillColor=none;" parent="1" vertex="1">
          <mxGeometry x="-550" y="350.21" width="60" height="30" as="geometry" />
        </mxCell>
        <mxCell id="201Y617eYST6EXYn0ONy-18" value="HTTPS" style="text;html=1;align=center;verticalAlign=middle;resizable=0;points=[];autosize=1;strokeColor=none;fillColor=none;" parent="1" vertex="1">
          <mxGeometry x="-550" y="327" width="60" height="30" as="geometry" />
        </mxCell>
        <mxCell id="201Y617eYST6EXYn0ONy-19" value="output" style="text;html=1;align=center;verticalAlign=middle;resizable=0;points=[];autosize=1;strokeColor=none;fillColor=none;" parent="1" vertex="1">
          <mxGeometry x="-605" y="300" width="51" height="26" as="geometry" />
        </mxCell>
        <mxCell id="201Y617eYST6EXYn0ONy-20" value="input" style="text;html=1;align=center;verticalAlign=middle;resizable=0;points=[];autosize=1;strokeColor=none;fillColor=none;" parent="1" vertex="1">
          <mxGeometry x="-696" y="300" width="44" height="26" as="geometry" />
        </mxCell>
        <mxCell id="201Y617eYST6EXYn0ONy-21" value="Controller Layer" style="rounded=1;whiteSpace=wrap;html=1;" parent="1" vertex="1">
          <mxGeometry x="-444.5" y="253.12" width="110" height="34.12" as="geometry" />
        </mxCell>
        <mxCell id="201Y617eYST6EXYn0ONy-22" value="Service Layer" style="rounded=1;whiteSpace=wrap;html=1;" parent="1" vertex="1">
          <mxGeometry x="-443.5" y="334.44" width="109" height="34.12" as="geometry" />
        </mxCell>
        <mxCell id="201Y617eYST6EXYn0ONy-23" style="edgeStyle=orthogonalEdgeStyle;rounded=0;orthogonalLoop=1;jettySize=auto;html=1;entryX=0.75;entryY=1;entryDx=0;entryDy=0;exitX=0.75;exitY=0;exitDx=0;exitDy=0;" parent="1" source="201Y617eYST6EXYn0ONy-22" target="201Y617eYST6EXYn0ONy-21" edge="1">
          <mxGeometry relative="1" as="geometry" />
        </mxCell>
        <mxCell id="201Y617eYST6EXYn0ONy-24" style="edgeStyle=orthogonalEdgeStyle;rounded=0;orthogonalLoop=1;jettySize=auto;html=1;exitX=0.25;exitY=1;exitDx=0;exitDy=0;entryX=0.25;entryY=0;entryDx=0;entryDy=0;" parent="1" source="201Y617eYST6EXYn0ONy-21" target="201Y617eYST6EXYn0ONy-22" edge="1">
          <mxGeometry relative="1" as="geometry" />
        </mxCell>
        <mxCell id="201Y617eYST6EXYn0ONy-25" style="edgeStyle=orthogonalEdgeStyle;rounded=0;orthogonalLoop=1;jettySize=auto;html=1;entryX=0;entryY=0.5;entryDx=0;entryDy=0;exitX=1;exitY=0.5;exitDx=0;exitDy=0;startArrow=classic;startFill=1;endArrow=classic;endFill=1;" parent="1" source="201Y617eYST6EXYn0ONy-7" target="201Y617eYST6EXYn0ONy-21" edge="1">
          <mxGeometry relative="1" as="geometry">
            <mxPoint x="-417" y="398.12" as="targetPoint" />
            <Array as="points">
              <mxPoint x="-491" y="353" />
              <mxPoint x="-491" y="270" />
            </Array>
          </mxGeometry>
        </mxCell>
        <mxCell id="201Y617eYST6EXYn0ONy-26" style="rounded=0;orthogonalLoop=1;jettySize=auto;html=1;entryX=1;entryY=0.25;entryDx=0;entryDy=0;exitX=0;exitY=0.25;exitDx=0;exitDy=0;startArrow=classic;startFill=1;endArrow=classic;endFill=1;" parent="1" edge="1">
          <mxGeometry relative="1" as="geometry">
            <mxPoint x="-221.5" y="351.07999999999987" as="sourcePoint" />
            <mxPoint x="-334.5" y="351.30000000000024" as="targetPoint" />
          </mxGeometry>
        </mxCell>
        <mxCell id="201Y617eYST6EXYn0ONy-28" value="" style="image;aspect=fixed;perimeter=ellipsePerimeter;html=1;align=center;shadow=0;dashed=0;spacingTop=3;image=img/lib/active_directory/generic_server.svg;" parent="1" vertex="1">
          <mxGeometry x="-407.99999999999994" y="132.5" width="42" height="75" as="geometry" />
        </mxCell>
        <mxCell id="201Y617eYST6EXYn0ONy-29" value="retrieve" style="text;html=1;align=center;verticalAlign=middle;resizable=0;points=[];autosize=1;strokeColor=none;fillColor=none;" parent="1" vertex="1">
          <mxGeometry x="-366" y="300" width="58" height="26" as="geometry" />
        </mxCell>
        <mxCell id="201Y617eYST6EXYn0ONy-30" value="execute" style="text;html=1;align=center;verticalAlign=middle;resizable=0;points=[];autosize=1;strokeColor=none;fillColor=none;" parent="1" vertex="1">
          <mxGeometry x="-473" y="298" width="60" height="26" as="geometry" />
        </mxCell>
        <mxCell id="201Y617eYST6EXYn0ONy-31" value="Application / Server" style="text;html=1;align=center;verticalAlign=middle;resizable=0;points=[];autosize=1;strokeColor=none;fillColor=none;fontStyle=1" parent="1" vertex="1">
          <mxGeometry x="-451.5000000000001" y="204.5" width="130" height="30" as="geometry" />
        </mxCell>
        <mxCell id="201Y617eYST6EXYn0ONy-14" value="&lt;b&gt;Model&lt;/b&gt;" style="text;html=1;align=center;verticalAlign=middle;resizable=0;points=[];autosize=1;strokeColor=none;fillColor=none;" parent="1" vertex="1">
          <mxGeometry x="-196.5" y="304" width="60" height="30" as="geometry" />
        </mxCell>
        <mxCell id="201Y617eYST6EXYn0ONy-36" value="" style="image;aspect=fixed;perimeter=ellipsePerimeter;html=1;align=center;shadow=0;dashed=0;spacingTop=3;image=img/lib/active_directory/database.svg;" parent="1" vertex="1">
          <mxGeometry x="-312.15" y="426.5" width="72.3" height="53.5" as="geometry" />
        </mxCell>
        <mxCell id="201Y617eYST6EXYn0ONy-37" value="Database" style="text;html=1;align=center;verticalAlign=middle;resizable=0;points=[];autosize=1;strokeColor=none;fillColor=none;fontStyle=1" parent="1" vertex="1">
          <mxGeometry x="-310.5" y="478" width="70" height="30" as="geometry" />
        </mxCell>
        <mxCell id="201Y617eYST6EXYn0ONy-41" value="JPA/ Spring Data" style="text;html=1;align=center;verticalAlign=middle;resizable=0;points=[];autosize=1;strokeColor=none;fillColor=none;" parent="1" vertex="1">
          <mxGeometry x="-170" y="410" width="110" height="30" as="geometry" />
        </mxCell>
        <mxCell id="201Y617eYST6EXYn0ONy-42" style="edgeStyle=orthogonalEdgeStyle;rounded=0;orthogonalLoop=1;jettySize=auto;html=1;startArrow=classic;startFill=1;entryX=0.5;entryY=1;entryDx=0;entryDy=0;" parent="1" source="201Y617eYST6EXYn0ONy-36" target="201Y617eYST6EXYn0ONy-22" edge="1">
          <mxGeometry relative="1" as="geometry">
            <mxPoint x="-312" y="453" as="sourcePoint" />
            <mxPoint x="-156" y="400" as="targetPoint" />
          </mxGeometry>
        </mxCell>
        <mxCell id="201Y617eYST6EXYn0ONy-46" value="HTML, CSS, JavaScript" style="text;html=1;align=center;verticalAlign=middle;resizable=0;points=[];autosize=1;strokeColor=none;fillColor=none;" parent="1" vertex="1">
          <mxGeometry x="-702.1500000000001" y="224" width="150" height="30" as="geometry" />
        </mxCell>
        <mxCell id="201Y617eYST6EXYn0ONy-49" value="Java, JavaScript" style="text;html=1;align=center;verticalAlign=middle;resizable=0;points=[];autosize=1;strokeColor=none;fillColor=none;" parent="1" vertex="1">
          <mxGeometry x="-440.5000000000001" y="224" width="110" height="30" as="geometry" />
        </mxCell>
        <mxCell id="201Y617eYST6EXYn0ONy-50" value="MySQL" style="text;html=1;align=center;verticalAlign=middle;resizable=0;points=[];autosize=1;strokeColor=none;fillColor=none;" parent="1" vertex="1">
          <mxGeometry x="-305.5000000000001" y="500" width="60" height="30" as="geometry" />
        </mxCell>
      </root>
    </mxGraphModel>
  </diagram>
  <diagram id="MlMXpct6EDydyIFlETEo" name="erd">
    <mxGraphModel dx="1584" dy="1892" grid="1" gridSize="10" guides="1" tooltips="1" connect="1" arrows="1" fold="1" page="1" pageScale="1" pageWidth="827" pageHeight="1169" math="0" shadow="0">
      <root>
        <mxCell id="0" />
        <mxCell id="1" parent="0" />
        <mxCell id="u6NND71XvSvQf7fGE0OB-1" value="user" style="shape=table;startSize=30;container=1;collapsible=1;childLayout=tableLayout;fixedRows=1;rowLines=0;fontStyle=1;align=center;resizeLast=1;html=1;fillColor=#cce5ff;strokeColor=#36393d;" parent="1" vertex="1">
          <mxGeometry x="20" y="80" width="200" height="330" as="geometry" />
        </mxCell>
        <mxCell id="u6NND71XvSvQf7fGE0OB-2" value="" style="shape=tableRow;horizontal=0;startSize=0;swimlaneHead=0;swimlaneBody=0;fillColor=none;collapsible=0;dropTarget=0;points=[[0,0.5],[1,0.5]];portConstraint=eastwest;top=0;left=0;right=0;bottom=1;" parent="u6NND71XvSvQf7fGE0OB-1" vertex="1">
          <mxGeometry y="30" width="200" height="30" as="geometry" />
        </mxCell>
        <mxCell id="u6NND71XvSvQf7fGE0OB-3" value="PK" style="shape=partialRectangle;connectable=0;fillColor=none;top=0;left=0;bottom=0;right=0;fontStyle=1;overflow=hidden;whiteSpace=wrap;html=1;" parent="u6NND71XvSvQf7fGE0OB-2" vertex="1">
          <mxGeometry width="30" height="30" as="geometry">
            <mxRectangle width="30" height="30" as="alternateBounds" />
          </mxGeometry>
        </mxCell>
        <mxCell id="u6NND71XvSvQf7fGE0OB-4" value="user_id (bigint)" style="shape=partialRectangle;connectable=0;fillColor=none;top=0;left=0;bottom=0;right=0;align=left;spacingLeft=6;fontStyle=5;overflow=hidden;whiteSpace=wrap;html=1;" parent="u6NND71XvSvQf7fGE0OB-2" vertex="1">
          <mxGeometry x="30" width="170" height="30" as="geometry">
            <mxRectangle width="170" height="30" as="alternateBounds" />
          </mxGeometry>
        </mxCell>
        <mxCell id="u6NND71XvSvQf7fGE0OB-5" value="" style="shape=tableRow;horizontal=0;startSize=0;swimlaneHead=0;swimlaneBody=0;fillColor=none;collapsible=0;dropTarget=0;points=[[0,0.5],[1,0.5]];portConstraint=eastwest;top=0;left=0;right=0;bottom=0;" parent="u6NND71XvSvQf7fGE0OB-1" vertex="1">
          <mxGeometry y="60" width="200" height="30" as="geometry" />
        </mxCell>
        <mxCell id="u6NND71XvSvQf7fGE0OB-6" value="" style="shape=partialRectangle;connectable=0;fillColor=none;top=0;left=0;bottom=0;right=0;editable=1;overflow=hidden;whiteSpace=wrap;html=1;" parent="u6NND71XvSvQf7fGE0OB-5" vertex="1">
          <mxGeometry width="30" height="30" as="geometry">
            <mxRectangle width="30" height="30" as="alternateBounds" />
          </mxGeometry>
        </mxCell>
        <mxCell id="u6NND71XvSvQf7fGE0OB-7" value="username (varchar)" style="shape=partialRectangle;connectable=0;fillColor=none;top=0;left=0;bottom=0;right=0;align=left;spacingLeft=6;overflow=hidden;whiteSpace=wrap;html=1;" parent="u6NND71XvSvQf7fGE0OB-5" vertex="1">
          <mxGeometry x="30" width="170" height="30" as="geometry">
            <mxRectangle width="170" height="30" as="alternateBounds" />
          </mxGeometry>
        </mxCell>
        <mxCell id="u6NND71XvSvQf7fGE0OB-8" value="" style="shape=tableRow;horizontal=0;startSize=0;swimlaneHead=0;swimlaneBody=0;fillColor=none;collapsible=0;dropTarget=0;points=[[0,0.5],[1,0.5]];portConstraint=eastwest;top=0;left=0;right=0;bottom=0;" parent="u6NND71XvSvQf7fGE0OB-1" vertex="1">
          <mxGeometry y="90" width="200" height="30" as="geometry" />
        </mxCell>
        <mxCell id="u6NND71XvSvQf7fGE0OB-9" value="" style="shape=partialRectangle;connectable=0;fillColor=none;top=0;left=0;bottom=0;right=0;editable=1;overflow=hidden;whiteSpace=wrap;html=1;" parent="u6NND71XvSvQf7fGE0OB-8" vertex="1">
          <mxGeometry width="30" height="30" as="geometry">
            <mxRectangle width="30" height="30" as="alternateBounds" />
          </mxGeometry>
        </mxCell>
        <mxCell id="u6NND71XvSvQf7fGE0OB-10" value="enabled (bit)" style="shape=partialRectangle;connectable=0;fillColor=none;top=0;left=0;bottom=0;right=0;align=left;spacingLeft=6;overflow=hidden;whiteSpace=wrap;html=1;" parent="u6NND71XvSvQf7fGE0OB-8" vertex="1">
          <mxGeometry x="30" width="170" height="30" as="geometry">
            <mxRectangle width="170" height="30" as="alternateBounds" />
          </mxGeometry>
        </mxCell>
        <mxCell id="u6NND71XvSvQf7fGE0OB-11" value="" style="shape=tableRow;horizontal=0;startSize=0;swimlaneHead=0;swimlaneBody=0;fillColor=none;collapsible=0;dropTarget=0;points=[[0,0.5],[1,0.5]];portConstraint=eastwest;top=0;left=0;right=0;bottom=0;" parent="u6NND71XvSvQf7fGE0OB-1" vertex="1">
          <mxGeometry y="120" width="200" height="30" as="geometry" />
        </mxCell>
        <mxCell id="u6NND71XvSvQf7fGE0OB-12" value="" style="shape=partialRectangle;connectable=0;fillColor=none;top=0;left=0;bottom=0;right=0;editable=1;overflow=hidden;whiteSpace=wrap;html=1;" parent="u6NND71XvSvQf7fGE0OB-11" vertex="1">
          <mxGeometry width="30" height="30" as="geometry">
            <mxRectangle width="30" height="30" as="alternateBounds" />
          </mxGeometry>
        </mxCell>
        <mxCell id="u6NND71XvSvQf7fGE0OB-13" value="first_name (varchar)" style="shape=partialRectangle;connectable=0;fillColor=none;top=0;left=0;bottom=0;right=0;align=left;spacingLeft=6;overflow=hidden;whiteSpace=wrap;html=1;" parent="u6NND71XvSvQf7fGE0OB-11" vertex="1">
          <mxGeometry x="30" width="170" height="30" as="geometry">
            <mxRectangle width="170" height="30" as="alternateBounds" />
          </mxGeometry>
        </mxCell>
        <mxCell id="gHnU9WEsPto_mZrY3bqx-3" value="" style="shape=tableRow;horizontal=0;startSize=0;swimlaneHead=0;swimlaneBody=0;fillColor=none;collapsible=0;dropTarget=0;points=[[0,0.5],[1,0.5]];portConstraint=eastwest;top=0;left=0;right=0;bottom=0;" parent="u6NND71XvSvQf7fGE0OB-1" vertex="1">
          <mxGeometry y="150" width="200" height="30" as="geometry" />
        </mxCell>
        <mxCell id="gHnU9WEsPto_mZrY3bqx-4" value="" style="shape=partialRectangle;connectable=0;fillColor=none;top=0;left=0;bottom=0;right=0;editable=1;overflow=hidden;whiteSpace=wrap;html=1;" parent="gHnU9WEsPto_mZrY3bqx-3" vertex="1">
          <mxGeometry width="30" height="30" as="geometry">
            <mxRectangle width="30" height="30" as="alternateBounds" />
          </mxGeometry>
        </mxCell>
        <mxCell id="gHnU9WEsPto_mZrY3bqx-5" value="last_name (varchar)" style="shape=partialRectangle;connectable=0;fillColor=none;top=0;left=0;bottom=0;right=0;align=left;spacingLeft=6;overflow=hidden;whiteSpace=wrap;html=1;" parent="gHnU9WEsPto_mZrY3bqx-3" vertex="1">
          <mxGeometry x="30" width="170" height="30" as="geometry">
            <mxRectangle width="170" height="30" as="alternateBounds" />
          </mxGeometry>
        </mxCell>
        <mxCell id="gHnU9WEsPto_mZrY3bqx-6" value="" style="shape=tableRow;horizontal=0;startSize=0;swimlaneHead=0;swimlaneBody=0;fillColor=none;collapsible=0;dropTarget=0;points=[[0,0.5],[1,0.5]];portConstraint=eastwest;top=0;left=0;right=0;bottom=0;" parent="u6NND71XvSvQf7fGE0OB-1" vertex="1">
          <mxGeometry y="180" width="200" height="30" as="geometry" />
        </mxCell>
        <mxCell id="gHnU9WEsPto_mZrY3bqx-7" value="" style="shape=partialRectangle;connectable=0;fillColor=none;top=0;left=0;bottom=0;right=0;editable=1;overflow=hidden;whiteSpace=wrap;html=1;" parent="gHnU9WEsPto_mZrY3bqx-6" vertex="1">
          <mxGeometry width="30" height="30" as="geometry">
            <mxRectangle width="30" height="30" as="alternateBounds" />
          </mxGeometry>
        </mxCell>
        <mxCell id="gHnU9WEsPto_mZrY3bqx-8" value="email (varchar)" style="shape=partialRectangle;connectable=0;fillColor=none;top=0;left=0;bottom=0;right=0;align=left;spacingLeft=6;overflow=hidden;whiteSpace=wrap;html=1;" parent="gHnU9WEsPto_mZrY3bqx-6" vertex="1">
          <mxGeometry x="30" width="170" height="30" as="geometry">
            <mxRectangle width="170" height="30" as="alternateBounds" />
          </mxGeometry>
        </mxCell>
        <mxCell id="gHnU9WEsPto_mZrY3bqx-9" value="" style="shape=tableRow;horizontal=0;startSize=0;swimlaneHead=0;swimlaneBody=0;fillColor=none;collapsible=0;dropTarget=0;points=[[0,0.5],[1,0.5]];portConstraint=eastwest;top=0;left=0;right=0;bottom=0;" parent="u6NND71XvSvQf7fGE0OB-1" vertex="1">
          <mxGeometry y="210" width="200" height="30" as="geometry" />
        </mxCell>
        <mxCell id="gHnU9WEsPto_mZrY3bqx-10" value="" style="shape=partialRectangle;connectable=0;fillColor=none;top=0;left=0;bottom=0;right=0;editable=1;overflow=hidden;whiteSpace=wrap;html=1;" parent="gHnU9WEsPto_mZrY3bqx-9" vertex="1">
          <mxGeometry width="30" height="30" as="geometry">
            <mxRectangle width="30" height="30" as="alternateBounds" />
          </mxGeometry>
        </mxCell>
        <mxCell id="gHnU9WEsPto_mZrY3bqx-11" value="phone_number (varchar)" style="shape=partialRectangle;connectable=0;fillColor=none;top=0;left=0;bottom=0;right=0;align=left;spacingLeft=6;overflow=hidden;whiteSpace=wrap;html=1;" parent="gHnU9WEsPto_mZrY3bqx-9" vertex="1">
          <mxGeometry x="30" width="170" height="30" as="geometry">
            <mxRectangle width="170" height="30" as="alternateBounds" />
          </mxGeometry>
        </mxCell>
        <mxCell id="gHnU9WEsPto_mZrY3bqx-12" value="" style="shape=tableRow;horizontal=0;startSize=0;swimlaneHead=0;swimlaneBody=0;fillColor=none;collapsible=0;dropTarget=0;points=[[0,0.5],[1,0.5]];portConstraint=eastwest;top=0;left=0;right=0;bottom=0;" parent="u6NND71XvSvQf7fGE0OB-1" vertex="1">
          <mxGeometry y="240" width="200" height="30" as="geometry" />
        </mxCell>
        <mxCell id="gHnU9WEsPto_mZrY3bqx-13" value="" style="shape=partialRectangle;connectable=0;fillColor=none;top=0;left=0;bottom=0;right=0;editable=1;overflow=hidden;whiteSpace=wrap;html=1;" parent="gHnU9WEsPto_mZrY3bqx-12" vertex="1">
          <mxGeometry width="30" height="30" as="geometry">
            <mxRectangle width="30" height="30" as="alternateBounds" />
          </mxGeometry>
        </mxCell>
        <mxCell id="gHnU9WEsPto_mZrY3bqx-14" value="password (varchar)" style="shape=partialRectangle;connectable=0;fillColor=none;top=0;left=0;bottom=0;right=0;align=left;spacingLeft=6;overflow=hidden;whiteSpace=wrap;html=1;" parent="gHnU9WEsPto_mZrY3bqx-12" vertex="1">
          <mxGeometry x="30" width="170" height="30" as="geometry">
            <mxRectangle width="170" height="30" as="alternateBounds" />
          </mxGeometry>
        </mxCell>
        <mxCell id="gHnU9WEsPto_mZrY3bqx-15" value="" style="shape=tableRow;horizontal=0;startSize=0;swimlaneHead=0;swimlaneBody=0;fillColor=none;collapsible=0;dropTarget=0;points=[[0,0.5],[1,0.5]];portConstraint=eastwest;top=0;left=0;right=0;bottom=0;" parent="u6NND71XvSvQf7fGE0OB-1" vertex="1">
          <mxGeometry y="270" width="200" height="30" as="geometry" />
        </mxCell>
        <mxCell id="gHnU9WEsPto_mZrY3bqx-16" value="FK" style="shape=partialRectangle;connectable=0;fillColor=none;top=0;left=0;bottom=0;right=0;editable=1;overflow=hidden;whiteSpace=wrap;html=1;" parent="gHnU9WEsPto_mZrY3bqx-15" vertex="1">
          <mxGeometry width="30" height="30" as="geometry">
            <mxRectangle width="30" height="30" as="alternateBounds" />
          </mxGeometry>
        </mxCell>
        <mxCell id="gHnU9WEsPto_mZrY3bqx-17" value="current_account_id (bigint)" style="shape=partialRectangle;connectable=0;fillColor=none;top=0;left=0;bottom=0;right=0;align=left;spacingLeft=6;overflow=hidden;whiteSpace=wrap;html=1;" parent="gHnU9WEsPto_mZrY3bqx-15" vertex="1">
          <mxGeometry x="30" width="170" height="30" as="geometry">
            <mxRectangle width="170" height="30" as="alternateBounds" />
          </mxGeometry>
        </mxCell>
        <mxCell id="gHnU9WEsPto_mZrY3bqx-18" value="" style="shape=tableRow;horizontal=0;startSize=0;swimlaneHead=0;swimlaneBody=0;fillColor=none;collapsible=0;dropTarget=0;points=[[0,0.5],[1,0.5]];portConstraint=eastwest;top=0;left=0;right=0;bottom=0;" parent="u6NND71XvSvQf7fGE0OB-1" vertex="1">
          <mxGeometry y="300" width="200" height="30" as="geometry" />
        </mxCell>
        <mxCell id="gHnU9WEsPto_mZrY3bqx-19" value="FK" style="shape=partialRectangle;connectable=0;fillColor=none;top=0;left=0;bottom=0;right=0;editable=1;overflow=hidden;whiteSpace=wrap;html=1;" parent="gHnU9WEsPto_mZrY3bqx-18" vertex="1">
          <mxGeometry width="30" height="30" as="geometry">
            <mxRectangle width="30" height="30" as="alternateBounds" />
          </mxGeometry>
        </mxCell>
        <mxCell id="gHnU9WEsPto_mZrY3bqx-20" value="savings_account_id (bigint)" style="shape=partialRectangle;connectable=0;fillColor=none;top=0;left=0;bottom=0;right=0;align=left;spacingLeft=6;overflow=hidden;whiteSpace=wrap;html=1;" parent="gHnU9WEsPto_mZrY3bqx-18" vertex="1">
          <mxGeometry x="30" width="170" height="30" as="geometry">
            <mxRectangle width="170" height="30" as="alternateBounds" />
          </mxGeometry>
        </mxCell>
        <mxCell id="gHnU9WEsPto_mZrY3bqx-62" value="" style="edgeStyle=entityRelationEdgeStyle;fontSize=12;html=1;endArrow=ERoneToMany;startArrow=ERmandOne;rounded=0;exitX=0;exitY=0.5;exitDx=0;exitDy=0;" parent="1" source="gHnU9WEsPto_mZrY3bqx-22" target="gHnU9WEsPto_mZrY3bqx-18" edge="1">
          <mxGeometry width="100" height="100" relative="1" as="geometry">
            <mxPoint x="310" y="270" as="sourcePoint" />
            <mxPoint x="410" y="170" as="targetPoint" />
            <Array as="points">
              <mxPoint x="310" y="350" />
            </Array>
          </mxGeometry>
        </mxCell>
        <mxCell id="gHnU9WEsPto_mZrY3bqx-63" value="" style="edgeStyle=entityRelationEdgeStyle;fontSize=12;html=1;endArrow=ERoneToMany;startArrow=ERmandOne;rounded=0;exitX=0;exitY=0.5;exitDx=0;exitDy=0;" parent="1" source="gHnU9WEsPto_mZrY3bqx-53" target="gHnU9WEsPto_mZrY3bqx-15" edge="1">
          <mxGeometry width="100" height="100" relative="1" as="geometry">
            <mxPoint x="311" y="325" as="sourcePoint" />
            <mxPoint x="230" y="405" as="targetPoint" />
          </mxGeometry>
        </mxCell>
        <mxCell id="gHnU9WEsPto_mZrY3bqx-120" value="" style="edgeStyle=entityRelationEdgeStyle;fontSize=12;html=1;endArrow=ERoneToMany;startArrow=ERmandOne;rounded=0;" parent="1" source="gHnU9WEsPto_mZrY3bqx-53" target="gHnU9WEsPto_mZrY3bqx-117" edge="1">
          <mxGeometry width="100" height="100" relative="1" as="geometry">
            <mxPoint x="311" y="155" as="sourcePoint" />
            <mxPoint x="230" y="375" as="targetPoint" />
          </mxGeometry>
        </mxCell>
        <mxCell id="gHnU9WEsPto_mZrY3bqx-121" value="" style="edgeStyle=entityRelationEdgeStyle;fontSize=12;html=1;endArrow=ERoneToMany;startArrow=ERmandOne;rounded=0;entryX=0;entryY=0.5;entryDx=0;entryDy=0;" parent="1" source="gHnU9WEsPto_mZrY3bqx-22" target="gHnU9WEsPto_mZrY3bqx-86" edge="1">
          <mxGeometry width="100" height="100" relative="1" as="geometry">
            <mxPoint x="511" y="155" as="sourcePoint" />
            <mxPoint x="610" y="225" as="targetPoint" />
          </mxGeometry>
        </mxCell>
        <mxCell id="gHnU9WEsPto_mZrY3bqx-122" value="" style="group" parent="1" vertex="1" connectable="0">
          <mxGeometry x="580" y="-40" width="200" height="570" as="geometry" />
        </mxCell>
        <mxCell id="gHnU9WEsPto_mZrY3bqx-64" value="savings_transaction" style="shape=table;startSize=30;container=1;collapsible=1;childLayout=tableLayout;fixedRows=1;rowLines=0;fontStyle=1;align=center;resizeLast=1;html=1;fillColor=#cce5ff;strokeColor=#36393d;" parent="gHnU9WEsPto_mZrY3bqx-122" vertex="1">
          <mxGeometry y="300" width="200" height="270" as="geometry" />
        </mxCell>
        <mxCell id="gHnU9WEsPto_mZrY3bqx-65" value="" style="shape=tableRow;horizontal=0;startSize=0;swimlaneHead=0;swimlaneBody=0;fillColor=none;collapsible=0;dropTarget=0;points=[[0,0.5],[1,0.5]];portConstraint=eastwest;top=0;left=0;right=0;bottom=1;" parent="gHnU9WEsPto_mZrY3bqx-64" vertex="1">
          <mxGeometry y="30" width="200" height="30" as="geometry" />
        </mxCell>
        <mxCell id="gHnU9WEsPto_mZrY3bqx-66" value="PK" style="shape=partialRectangle;connectable=0;fillColor=none;top=0;left=0;bottom=0;right=0;fontStyle=1;overflow=hidden;whiteSpace=wrap;html=1;" parent="gHnU9WEsPto_mZrY3bqx-65" vertex="1">
          <mxGeometry width="30" height="30" as="geometry">
            <mxRectangle width="30" height="30" as="alternateBounds" />
          </mxGeometry>
        </mxCell>
        <mxCell id="gHnU9WEsPto_mZrY3bqx-67" value="id (bigint)" style="shape=partialRectangle;connectable=0;fillColor=none;top=0;left=0;bottom=0;right=0;align=left;spacingLeft=6;fontStyle=5;overflow=hidden;whiteSpace=wrap;html=1;" parent="gHnU9WEsPto_mZrY3bqx-65" vertex="1">
          <mxGeometry x="30" width="170" height="30" as="geometry">
            <mxRectangle width="170" height="30" as="alternateBounds" />
          </mxGeometry>
        </mxCell>
        <mxCell id="gHnU9WEsPto_mZrY3bqx-68" value="" style="shape=tableRow;horizontal=0;startSize=0;swimlaneHead=0;swimlaneBody=0;fillColor=none;collapsible=0;dropTarget=0;points=[[0,0.5],[1,0.5]];portConstraint=eastwest;top=0;left=0;right=0;bottom=0;" parent="gHnU9WEsPto_mZrY3bqx-64" vertex="1">
          <mxGeometry y="60" width="200" height="30" as="geometry" />
        </mxCell>
        <mxCell id="gHnU9WEsPto_mZrY3bqx-69" value="" style="shape=partialRectangle;connectable=0;fillColor=none;top=0;left=0;bottom=0;right=0;editable=1;overflow=hidden;whiteSpace=wrap;html=1;" parent="gHnU9WEsPto_mZrY3bqx-68" vertex="1">
          <mxGeometry width="30" height="30" as="geometry">
            <mxRectangle width="30" height="30" as="alternateBounds" />
          </mxGeometry>
        </mxCell>
        <mxCell id="gHnU9WEsPto_mZrY3bqx-70" value="amount (double)" style="shape=partialRectangle;connectable=0;fillColor=none;top=0;left=0;bottom=0;right=0;align=left;spacingLeft=6;overflow=hidden;whiteSpace=wrap;html=1;" parent="gHnU9WEsPto_mZrY3bqx-68" vertex="1">
          <mxGeometry x="30" width="170" height="30" as="geometry">
            <mxRectangle width="170" height="30" as="alternateBounds" />
          </mxGeometry>
        </mxCell>
        <mxCell id="gHnU9WEsPto_mZrY3bqx-71" value="" style="shape=tableRow;horizontal=0;startSize=0;swimlaneHead=0;swimlaneBody=0;fillColor=none;collapsible=0;dropTarget=0;points=[[0,0.5],[1,0.5]];portConstraint=eastwest;top=0;left=0;right=0;bottom=0;" parent="gHnU9WEsPto_mZrY3bqx-64" vertex="1">
          <mxGeometry y="90" width="200" height="30" as="geometry" />
        </mxCell>
        <mxCell id="gHnU9WEsPto_mZrY3bqx-72" value="" style="shape=partialRectangle;connectable=0;fillColor=none;top=0;left=0;bottom=0;right=0;editable=1;overflow=hidden;whiteSpace=wrap;html=1;" parent="gHnU9WEsPto_mZrY3bqx-71" vertex="1">
          <mxGeometry width="30" height="30" as="geometry">
            <mxRectangle width="30" height="30" as="alternateBounds" />
          </mxGeometry>
        </mxCell>
        <mxCell id="gHnU9WEsPto_mZrY3bqx-73" value="available_balance (decimal)" style="shape=partialRectangle;connectable=0;fillColor=none;top=0;left=0;bottom=0;right=0;align=left;spacingLeft=6;overflow=hidden;whiteSpace=wrap;html=1;" parent="gHnU9WEsPto_mZrY3bqx-71" vertex="1">
          <mxGeometry x="30" width="170" height="30" as="geometry">
            <mxRectangle width="170" height="30" as="alternateBounds" />
          </mxGeometry>
        </mxCell>
        <mxCell id="gHnU9WEsPto_mZrY3bqx-74" value="" style="shape=tableRow;horizontal=0;startSize=0;swimlaneHead=0;swimlaneBody=0;fillColor=none;collapsible=0;dropTarget=0;points=[[0,0.5],[1,0.5]];portConstraint=eastwest;top=0;left=0;right=0;bottom=0;" parent="gHnU9WEsPto_mZrY3bqx-64" vertex="1">
          <mxGeometry y="120" width="200" height="30" as="geometry" />
        </mxCell>
        <mxCell id="gHnU9WEsPto_mZrY3bqx-75" value="" style="shape=partialRectangle;connectable=0;fillColor=none;top=0;left=0;bottom=0;right=0;editable=1;overflow=hidden;whiteSpace=wrap;html=1;" parent="gHnU9WEsPto_mZrY3bqx-74" vertex="1">
          <mxGeometry width="30" height="30" as="geometry">
            <mxRectangle width="30" height="30" as="alternateBounds" />
          </mxGeometry>
        </mxCell>
        <mxCell id="gHnU9WEsPto_mZrY3bqx-76" value="date (datetime)" style="shape=partialRectangle;connectable=0;fillColor=none;top=0;left=0;bottom=0;right=0;align=left;spacingLeft=6;overflow=hidden;whiteSpace=wrap;html=1;" parent="gHnU9WEsPto_mZrY3bqx-74" vertex="1">
          <mxGeometry x="30" width="170" height="30" as="geometry">
            <mxRectangle width="170" height="30" as="alternateBounds" />
          </mxGeometry>
        </mxCell>
        <mxCell id="gHnU9WEsPto_mZrY3bqx-77" value="" style="shape=tableRow;horizontal=0;startSize=0;swimlaneHead=0;swimlaneBody=0;fillColor=none;collapsible=0;dropTarget=0;points=[[0,0.5],[1,0.5]];portConstraint=eastwest;top=0;left=0;right=0;bottom=0;" parent="gHnU9WEsPto_mZrY3bqx-64" vertex="1">
          <mxGeometry y="150" width="200" height="30" as="geometry" />
        </mxCell>
        <mxCell id="gHnU9WEsPto_mZrY3bqx-78" value="" style="shape=partialRectangle;connectable=0;fillColor=none;top=0;left=0;bottom=0;right=0;editable=1;overflow=hidden;whiteSpace=wrap;html=1;" parent="gHnU9WEsPto_mZrY3bqx-77" vertex="1">
          <mxGeometry width="30" height="30" as="geometry">
            <mxRectangle width="30" height="30" as="alternateBounds" />
          </mxGeometry>
        </mxCell>
        <mxCell id="gHnU9WEsPto_mZrY3bqx-79" value="description (varchar)" style="shape=partialRectangle;connectable=0;fillColor=none;top=0;left=0;bottom=0;right=0;align=left;spacingLeft=6;overflow=hidden;whiteSpace=wrap;html=1;" parent="gHnU9WEsPto_mZrY3bqx-77" vertex="1">
          <mxGeometry x="30" width="170" height="30" as="geometry">
            <mxRectangle width="170" height="30" as="alternateBounds" />
          </mxGeometry>
        </mxCell>
        <mxCell id="gHnU9WEsPto_mZrY3bqx-80" value="" style="shape=tableRow;horizontal=0;startSize=0;swimlaneHead=0;swimlaneBody=0;fillColor=none;collapsible=0;dropTarget=0;points=[[0,0.5],[1,0.5]];portConstraint=eastwest;top=0;left=0;right=0;bottom=0;" parent="gHnU9WEsPto_mZrY3bqx-64" vertex="1">
          <mxGeometry y="180" width="200" height="30" as="geometry" />
        </mxCell>
        <mxCell id="gHnU9WEsPto_mZrY3bqx-81" value="" style="shape=partialRectangle;connectable=0;fillColor=none;top=0;left=0;bottom=0;right=0;editable=1;overflow=hidden;whiteSpace=wrap;html=1;" parent="gHnU9WEsPto_mZrY3bqx-80" vertex="1">
          <mxGeometry width="30" height="30" as="geometry">
            <mxRectangle width="30" height="30" as="alternateBounds" />
          </mxGeometry>
        </mxCell>
        <mxCell id="gHnU9WEsPto_mZrY3bqx-82" value="status (varchar)" style="shape=partialRectangle;connectable=0;fillColor=none;top=0;left=0;bottom=0;right=0;align=left;spacingLeft=6;overflow=hidden;whiteSpace=wrap;html=1;" parent="gHnU9WEsPto_mZrY3bqx-80" vertex="1">
          <mxGeometry x="30" width="170" height="30" as="geometry">
            <mxRectangle width="170" height="30" as="alternateBounds" />
          </mxGeometry>
        </mxCell>
        <mxCell id="gHnU9WEsPto_mZrY3bqx-83" value="" style="shape=tableRow;horizontal=0;startSize=0;swimlaneHead=0;swimlaneBody=0;fillColor=none;collapsible=0;dropTarget=0;points=[[0,0.5],[1,0.5]];portConstraint=eastwest;top=0;left=0;right=0;bottom=0;" parent="gHnU9WEsPto_mZrY3bqx-64" vertex="1">
          <mxGeometry y="210" width="200" height="30" as="geometry" />
        </mxCell>
        <mxCell id="gHnU9WEsPto_mZrY3bqx-84" value="" style="shape=partialRectangle;connectable=0;fillColor=none;top=0;left=0;bottom=0;right=0;editable=1;overflow=hidden;whiteSpace=wrap;html=1;" parent="gHnU9WEsPto_mZrY3bqx-83" vertex="1">
          <mxGeometry width="30" height="30" as="geometry">
            <mxRectangle width="30" height="30" as="alternateBounds" />
          </mxGeometry>
        </mxCell>
        <mxCell id="gHnU9WEsPto_mZrY3bqx-85" value="type (varchar)" style="shape=partialRectangle;connectable=0;fillColor=none;top=0;left=0;bottom=0;right=0;align=left;spacingLeft=6;overflow=hidden;whiteSpace=wrap;html=1;" parent="gHnU9WEsPto_mZrY3bqx-83" vertex="1">
          <mxGeometry x="30" width="170" height="30" as="geometry">
            <mxRectangle width="170" height="30" as="alternateBounds" />
          </mxGeometry>
        </mxCell>
        <mxCell id="gHnU9WEsPto_mZrY3bqx-86" value="" style="shape=tableRow;horizontal=0;startSize=0;swimlaneHead=0;swimlaneBody=0;fillColor=none;collapsible=0;dropTarget=0;points=[[0,0.5],[1,0.5]];portConstraint=eastwest;top=0;left=0;right=0;bottom=0;" parent="gHnU9WEsPto_mZrY3bqx-64" vertex="1">
          <mxGeometry y="240" width="200" height="30" as="geometry" />
        </mxCell>
        <mxCell id="gHnU9WEsPto_mZrY3bqx-87" value="FK" style="shape=partialRectangle;connectable=0;fillColor=none;top=0;left=0;bottom=0;right=0;editable=1;overflow=hidden;whiteSpace=wrap;html=1;" parent="gHnU9WEsPto_mZrY3bqx-86" vertex="1">
          <mxGeometry width="30" height="30" as="geometry">
            <mxRectangle width="30" height="30" as="alternateBounds" />
          </mxGeometry>
        </mxCell>
        <mxCell id="gHnU9WEsPto_mZrY3bqx-88" value="savings_account_id (bigint)" style="shape=partialRectangle;connectable=0;fillColor=none;top=0;left=0;bottom=0;right=0;align=left;spacingLeft=6;overflow=hidden;whiteSpace=wrap;html=1;" parent="gHnU9WEsPto_mZrY3bqx-86" vertex="1">
          <mxGeometry x="30" width="170" height="30" as="geometry">
            <mxRectangle width="170" height="30" as="alternateBounds" />
          </mxGeometry>
        </mxCell>
        <mxCell id="gHnU9WEsPto_mZrY3bqx-95" value="current_transaction" style="shape=table;startSize=30;container=1;collapsible=1;childLayout=tableLayout;fixedRows=1;rowLines=0;fontStyle=1;align=center;resizeLast=1;html=1;fillColor=#cce5ff;strokeColor=#36393d;" parent="gHnU9WEsPto_mZrY3bqx-122" vertex="1">
          <mxGeometry width="200" height="270" as="geometry" />
        </mxCell>
        <mxCell id="gHnU9WEsPto_mZrY3bqx-96" value="" style="shape=tableRow;horizontal=0;startSize=0;swimlaneHead=0;swimlaneBody=0;fillColor=none;collapsible=0;dropTarget=0;points=[[0,0.5],[1,0.5]];portConstraint=eastwest;top=0;left=0;right=0;bottom=1;" parent="gHnU9WEsPto_mZrY3bqx-95" vertex="1">
          <mxGeometry y="30" width="200" height="30" as="geometry" />
        </mxCell>
        <mxCell id="gHnU9WEsPto_mZrY3bqx-97" value="PK" style="shape=partialRectangle;connectable=0;fillColor=none;top=0;left=0;bottom=0;right=0;fontStyle=1;overflow=hidden;whiteSpace=wrap;html=1;" parent="gHnU9WEsPto_mZrY3bqx-96" vertex="1">
          <mxGeometry width="30" height="30" as="geometry">
            <mxRectangle width="30" height="30" as="alternateBounds" />
          </mxGeometry>
        </mxCell>
        <mxCell id="gHnU9WEsPto_mZrY3bqx-98" value="id (bigint)" style="shape=partialRectangle;connectable=0;fillColor=none;top=0;left=0;bottom=0;right=0;align=left;spacingLeft=6;fontStyle=5;overflow=hidden;whiteSpace=wrap;html=1;" parent="gHnU9WEsPto_mZrY3bqx-96" vertex="1">
          <mxGeometry x="30" width="170" height="30" as="geometry">
            <mxRectangle width="170" height="30" as="alternateBounds" />
          </mxGeometry>
        </mxCell>
        <mxCell id="gHnU9WEsPto_mZrY3bqx-99" value="" style="shape=tableRow;horizontal=0;startSize=0;swimlaneHead=0;swimlaneBody=0;fillColor=none;collapsible=0;dropTarget=0;points=[[0,0.5],[1,0.5]];portConstraint=eastwest;top=0;left=0;right=0;bottom=0;" parent="gHnU9WEsPto_mZrY3bqx-95" vertex="1">
          <mxGeometry y="60" width="200" height="30" as="geometry" />
        </mxCell>
        <mxCell id="gHnU9WEsPto_mZrY3bqx-100" value="" style="shape=partialRectangle;connectable=0;fillColor=none;top=0;left=0;bottom=0;right=0;editable=1;overflow=hidden;whiteSpace=wrap;html=1;" parent="gHnU9WEsPto_mZrY3bqx-99" vertex="1">
          <mxGeometry width="30" height="30" as="geometry">
            <mxRectangle width="30" height="30" as="alternateBounds" />
          </mxGeometry>
        </mxCell>
        <mxCell id="gHnU9WEsPto_mZrY3bqx-101" value="amount (double)" style="shape=partialRectangle;connectable=0;fillColor=none;top=0;left=0;bottom=0;right=0;align=left;spacingLeft=6;overflow=hidden;whiteSpace=wrap;html=1;" parent="gHnU9WEsPto_mZrY3bqx-99" vertex="1">
          <mxGeometry x="30" width="170" height="30" as="geometry">
            <mxRectangle width="170" height="30" as="alternateBounds" />
          </mxGeometry>
        </mxCell>
        <mxCell id="gHnU9WEsPto_mZrY3bqx-102" value="" style="shape=tableRow;horizontal=0;startSize=0;swimlaneHead=0;swimlaneBody=0;fillColor=none;collapsible=0;dropTarget=0;points=[[0,0.5],[1,0.5]];portConstraint=eastwest;top=0;left=0;right=0;bottom=0;" parent="gHnU9WEsPto_mZrY3bqx-95" vertex="1">
          <mxGeometry y="90" width="200" height="30" as="geometry" />
        </mxCell>
        <mxCell id="gHnU9WEsPto_mZrY3bqx-103" value="" style="shape=partialRectangle;connectable=0;fillColor=none;top=0;left=0;bottom=0;right=0;editable=1;overflow=hidden;whiteSpace=wrap;html=1;" parent="gHnU9WEsPto_mZrY3bqx-102" vertex="1">
          <mxGeometry width="30" height="30" as="geometry">
            <mxRectangle width="30" height="30" as="alternateBounds" />
          </mxGeometry>
        </mxCell>
        <mxCell id="gHnU9WEsPto_mZrY3bqx-104" value="available_balance (decimal)" style="shape=partialRectangle;connectable=0;fillColor=none;top=0;left=0;bottom=0;right=0;align=left;spacingLeft=6;overflow=hidden;whiteSpace=wrap;html=1;" parent="gHnU9WEsPto_mZrY3bqx-102" vertex="1">
          <mxGeometry x="30" width="170" height="30" as="geometry">
            <mxRectangle width="170" height="30" as="alternateBounds" />
          </mxGeometry>
        </mxCell>
        <mxCell id="gHnU9WEsPto_mZrY3bqx-105" value="" style="shape=tableRow;horizontal=0;startSize=0;swimlaneHead=0;swimlaneBody=0;fillColor=none;collapsible=0;dropTarget=0;points=[[0,0.5],[1,0.5]];portConstraint=eastwest;top=0;left=0;right=0;bottom=0;" parent="gHnU9WEsPto_mZrY3bqx-95" vertex="1">
          <mxGeometry y="120" width="200" height="30" as="geometry" />
        </mxCell>
        <mxCell id="gHnU9WEsPto_mZrY3bqx-106" value="" style="shape=partialRectangle;connectable=0;fillColor=none;top=0;left=0;bottom=0;right=0;editable=1;overflow=hidden;whiteSpace=wrap;html=1;" parent="gHnU9WEsPto_mZrY3bqx-105" vertex="1">
          <mxGeometry width="30" height="30" as="geometry">
            <mxRectangle width="30" height="30" as="alternateBounds" />
          </mxGeometry>
        </mxCell>
        <mxCell id="gHnU9WEsPto_mZrY3bqx-107" value="date (datetime)" style="shape=partialRectangle;connectable=0;fillColor=none;top=0;left=0;bottom=0;right=0;align=left;spacingLeft=6;overflow=hidden;whiteSpace=wrap;html=1;" parent="gHnU9WEsPto_mZrY3bqx-105" vertex="1">
          <mxGeometry x="30" width="170" height="30" as="geometry">
            <mxRectangle width="170" height="30" as="alternateBounds" />
          </mxGeometry>
        </mxCell>
        <mxCell id="gHnU9WEsPto_mZrY3bqx-108" value="" style="shape=tableRow;horizontal=0;startSize=0;swimlaneHead=0;swimlaneBody=0;fillColor=none;collapsible=0;dropTarget=0;points=[[0,0.5],[1,0.5]];portConstraint=eastwest;top=0;left=0;right=0;bottom=0;" parent="gHnU9WEsPto_mZrY3bqx-95" vertex="1">
          <mxGeometry y="150" width="200" height="30" as="geometry" />
        </mxCell>
        <mxCell id="gHnU9WEsPto_mZrY3bqx-109" value="" style="shape=partialRectangle;connectable=0;fillColor=none;top=0;left=0;bottom=0;right=0;editable=1;overflow=hidden;whiteSpace=wrap;html=1;" parent="gHnU9WEsPto_mZrY3bqx-108" vertex="1">
          <mxGeometry width="30" height="30" as="geometry">
            <mxRectangle width="30" height="30" as="alternateBounds" />
          </mxGeometry>
        </mxCell>
        <mxCell id="gHnU9WEsPto_mZrY3bqx-110" value="description (varchar)" style="shape=partialRectangle;connectable=0;fillColor=none;top=0;left=0;bottom=0;right=0;align=left;spacingLeft=6;overflow=hidden;whiteSpace=wrap;html=1;" parent="gHnU9WEsPto_mZrY3bqx-108" vertex="1">
          <mxGeometry x="30" width="170" height="30" as="geometry">
            <mxRectangle width="170" height="30" as="alternateBounds" />
          </mxGeometry>
        </mxCell>
        <mxCell id="gHnU9WEsPto_mZrY3bqx-111" value="" style="shape=tableRow;horizontal=0;startSize=0;swimlaneHead=0;swimlaneBody=0;fillColor=none;collapsible=0;dropTarget=0;points=[[0,0.5],[1,0.5]];portConstraint=eastwest;top=0;left=0;right=0;bottom=0;" parent="gHnU9WEsPto_mZrY3bqx-95" vertex="1">
          <mxGeometry y="180" width="200" height="30" as="geometry" />
        </mxCell>
        <mxCell id="gHnU9WEsPto_mZrY3bqx-112" value="" style="shape=partialRectangle;connectable=0;fillColor=none;top=0;left=0;bottom=0;right=0;editable=1;overflow=hidden;whiteSpace=wrap;html=1;" parent="gHnU9WEsPto_mZrY3bqx-111" vertex="1">
          <mxGeometry width="30" height="30" as="geometry">
            <mxRectangle width="30" height="30" as="alternateBounds" />
          </mxGeometry>
        </mxCell>
        <mxCell id="gHnU9WEsPto_mZrY3bqx-113" value="status (varchar)" style="shape=partialRectangle;connectable=0;fillColor=none;top=0;left=0;bottom=0;right=0;align=left;spacingLeft=6;overflow=hidden;whiteSpace=wrap;html=1;" parent="gHnU9WEsPto_mZrY3bqx-111" vertex="1">
          <mxGeometry x="30" width="170" height="30" as="geometry">
            <mxRectangle width="170" height="30" as="alternateBounds" />
          </mxGeometry>
        </mxCell>
        <mxCell id="gHnU9WEsPto_mZrY3bqx-114" value="" style="shape=tableRow;horizontal=0;startSize=0;swimlaneHead=0;swimlaneBody=0;fillColor=none;collapsible=0;dropTarget=0;points=[[0,0.5],[1,0.5]];portConstraint=eastwest;top=0;left=0;right=0;bottom=0;" parent="gHnU9WEsPto_mZrY3bqx-95" vertex="1">
          <mxGeometry y="210" width="200" height="30" as="geometry" />
        </mxCell>
        <mxCell id="gHnU9WEsPto_mZrY3bqx-115" value="" style="shape=partialRectangle;connectable=0;fillColor=none;top=0;left=0;bottom=0;right=0;editable=1;overflow=hidden;whiteSpace=wrap;html=1;" parent="gHnU9WEsPto_mZrY3bqx-114" vertex="1">
          <mxGeometry width="30" height="30" as="geometry">
            <mxRectangle width="30" height="30" as="alternateBounds" />
          </mxGeometry>
        </mxCell>
        <mxCell id="gHnU9WEsPto_mZrY3bqx-116" value="type (varchar)" style="shape=partialRectangle;connectable=0;fillColor=none;top=0;left=0;bottom=0;right=0;align=left;spacingLeft=6;overflow=hidden;whiteSpace=wrap;html=1;" parent="gHnU9WEsPto_mZrY3bqx-114" vertex="1">
          <mxGeometry x="30" width="170" height="30" as="geometry">
            <mxRectangle width="170" height="30" as="alternateBounds" />
          </mxGeometry>
        </mxCell>
        <mxCell id="gHnU9WEsPto_mZrY3bqx-117" value="" style="shape=tableRow;horizontal=0;startSize=0;swimlaneHead=0;swimlaneBody=0;fillColor=none;collapsible=0;dropTarget=0;points=[[0,0.5],[1,0.5]];portConstraint=eastwest;top=0;left=0;right=0;bottom=0;" parent="gHnU9WEsPto_mZrY3bqx-95" vertex="1">
          <mxGeometry y="240" width="200" height="30" as="geometry" />
        </mxCell>
        <mxCell id="gHnU9WEsPto_mZrY3bqx-118" value="FK" style="shape=partialRectangle;connectable=0;fillColor=none;top=0;left=0;bottom=0;right=0;editable=1;overflow=hidden;whiteSpace=wrap;html=1;" parent="gHnU9WEsPto_mZrY3bqx-117" vertex="1">
          <mxGeometry width="30" height="30" as="geometry">
            <mxRectangle width="30" height="30" as="alternateBounds" />
          </mxGeometry>
        </mxCell>
        <mxCell id="gHnU9WEsPto_mZrY3bqx-119" value="current_account_id (bigint)" style="shape=partialRectangle;connectable=0;fillColor=none;top=0;left=0;bottom=0;right=0;align=left;spacingLeft=6;overflow=hidden;whiteSpace=wrap;html=1;" parent="gHnU9WEsPto_mZrY3bqx-117" vertex="1">
          <mxGeometry x="30" width="170" height="30" as="geometry">
            <mxRectangle width="170" height="30" as="alternateBounds" />
          </mxGeometry>
        </mxCell>
        <mxCell id="gHnU9WEsPto_mZrY3bqx-123" value="" style="group" parent="1" vertex="1" connectable="0">
          <mxGeometry x="300.5" y="100" width="200" height="290" as="geometry" />
        </mxCell>
        <mxCell id="gHnU9WEsPto_mZrY3bqx-21" value="savings_account" style="shape=table;startSize=30;container=1;collapsible=1;childLayout=tableLayout;fixedRows=1;rowLines=0;fontStyle=1;align=center;resizeLast=1;html=1;fillColor=#cce5ff;strokeColor=#36393d;" parent="gHnU9WEsPto_mZrY3bqx-123" vertex="1">
          <mxGeometry y="170" width="200" height="120" as="geometry" />
        </mxCell>
        <mxCell id="gHnU9WEsPto_mZrY3bqx-22" value="" style="shape=tableRow;horizontal=0;startSize=0;swimlaneHead=0;swimlaneBody=0;fillColor=none;collapsible=0;dropTarget=0;points=[[0,0.5],[1,0.5]];portConstraint=eastwest;top=0;left=0;right=0;bottom=1;" parent="gHnU9WEsPto_mZrY3bqx-21" vertex="1">
          <mxGeometry y="30" width="200" height="30" as="geometry" />
        </mxCell>
        <mxCell id="gHnU9WEsPto_mZrY3bqx-23" value="PK" style="shape=partialRectangle;connectable=0;fillColor=none;top=0;left=0;bottom=0;right=0;fontStyle=1;overflow=hidden;whiteSpace=wrap;html=1;" parent="gHnU9WEsPto_mZrY3bqx-22" vertex="1">
          <mxGeometry width="30" height="30" as="geometry">
            <mxRectangle width="30" height="30" as="alternateBounds" />
          </mxGeometry>
        </mxCell>
        <mxCell id="gHnU9WEsPto_mZrY3bqx-24" value="id (bigint)" style="shape=partialRectangle;connectable=0;fillColor=none;top=0;left=0;bottom=0;right=0;align=left;spacingLeft=6;fontStyle=5;overflow=hidden;whiteSpace=wrap;html=1;" parent="gHnU9WEsPto_mZrY3bqx-22" vertex="1">
          <mxGeometry x="30" width="170" height="30" as="geometry">
            <mxRectangle width="170" height="30" as="alternateBounds" />
          </mxGeometry>
        </mxCell>
        <mxCell id="gHnU9WEsPto_mZrY3bqx-25" value="" style="shape=tableRow;horizontal=0;startSize=0;swimlaneHead=0;swimlaneBody=0;fillColor=none;collapsible=0;dropTarget=0;points=[[0,0.5],[1,0.5]];portConstraint=eastwest;top=0;left=0;right=0;bottom=0;" parent="gHnU9WEsPto_mZrY3bqx-21" vertex="1">
          <mxGeometry y="60" width="200" height="30" as="geometry" />
        </mxCell>
        <mxCell id="gHnU9WEsPto_mZrY3bqx-26" value="" style="shape=partialRectangle;connectable=0;fillColor=none;top=0;left=0;bottom=0;right=0;editable=1;overflow=hidden;whiteSpace=wrap;html=1;" parent="gHnU9WEsPto_mZrY3bqx-25" vertex="1">
          <mxGeometry width="30" height="30" as="geometry">
            <mxRectangle width="30" height="30" as="alternateBounds" />
          </mxGeometry>
        </mxCell>
        <mxCell id="gHnU9WEsPto_mZrY3bqx-27" value="account_number (int)" style="shape=partialRectangle;connectable=0;fillColor=none;top=0;left=0;bottom=0;right=0;align=left;spacingLeft=6;overflow=hidden;whiteSpace=wrap;html=1;" parent="gHnU9WEsPto_mZrY3bqx-25" vertex="1">
          <mxGeometry x="30" width="170" height="30" as="geometry">
            <mxRectangle width="170" height="30" as="alternateBounds" />
          </mxGeometry>
        </mxCell>
        <mxCell id="gHnU9WEsPto_mZrY3bqx-28" value="" style="shape=tableRow;horizontal=0;startSize=0;swimlaneHead=0;swimlaneBody=0;fillColor=none;collapsible=0;dropTarget=0;points=[[0,0.5],[1,0.5]];portConstraint=eastwest;top=0;left=0;right=0;bottom=0;" parent="gHnU9WEsPto_mZrY3bqx-21" vertex="1">
          <mxGeometry y="90" width="200" height="30" as="geometry" />
        </mxCell>
        <mxCell id="gHnU9WEsPto_mZrY3bqx-29" value="" style="shape=partialRectangle;connectable=0;fillColor=none;top=0;left=0;bottom=0;right=0;editable=1;overflow=hidden;whiteSpace=wrap;html=1;" parent="gHnU9WEsPto_mZrY3bqx-28" vertex="1">
          <mxGeometry width="30" height="30" as="geometry">
            <mxRectangle width="30" height="30" as="alternateBounds" />
          </mxGeometry>
        </mxCell>
        <mxCell id="gHnU9WEsPto_mZrY3bqx-30" value="account_balance (decimal)" style="shape=partialRectangle;connectable=0;fillColor=none;top=0;left=0;bottom=0;right=0;align=left;spacingLeft=6;overflow=hidden;whiteSpace=wrap;html=1;" parent="gHnU9WEsPto_mZrY3bqx-28" vertex="1">
          <mxGeometry x="30" width="170" height="30" as="geometry">
            <mxRectangle width="170" height="30" as="alternateBounds" />
          </mxGeometry>
        </mxCell>
        <mxCell id="gHnU9WEsPto_mZrY3bqx-52" value="current_account" style="shape=table;startSize=30;container=1;collapsible=1;childLayout=tableLayout;fixedRows=1;rowLines=0;fontStyle=1;align=center;resizeLast=1;html=1;fillColor=#cce5ff;strokeColor=#36393d;" parent="gHnU9WEsPto_mZrY3bqx-123" vertex="1">
          <mxGeometry width="200" height="120" as="geometry" />
        </mxCell>
        <mxCell id="gHnU9WEsPto_mZrY3bqx-53" value="" style="shape=tableRow;horizontal=0;startSize=0;swimlaneHead=0;swimlaneBody=0;fillColor=none;collapsible=0;dropTarget=0;points=[[0,0.5],[1,0.5]];portConstraint=eastwest;top=0;left=0;right=0;bottom=1;" parent="gHnU9WEsPto_mZrY3bqx-52" vertex="1">
          <mxGeometry y="30" width="200" height="30" as="geometry" />
        </mxCell>
        <mxCell id="gHnU9WEsPto_mZrY3bqx-54" value="PK" style="shape=partialRectangle;connectable=0;fillColor=none;top=0;left=0;bottom=0;right=0;fontStyle=1;overflow=hidden;whiteSpace=wrap;html=1;" parent="gHnU9WEsPto_mZrY3bqx-53" vertex="1">
          <mxGeometry width="30" height="30" as="geometry">
            <mxRectangle width="30" height="30" as="alternateBounds" />
          </mxGeometry>
        </mxCell>
        <mxCell id="gHnU9WEsPto_mZrY3bqx-55" value="id (bigint)" style="shape=partialRectangle;connectable=0;fillColor=none;top=0;left=0;bottom=0;right=0;align=left;spacingLeft=6;fontStyle=5;overflow=hidden;whiteSpace=wrap;html=1;" parent="gHnU9WEsPto_mZrY3bqx-53" vertex="1">
          <mxGeometry x="30" width="170" height="30" as="geometry">
            <mxRectangle width="170" height="30" as="alternateBounds" />
          </mxGeometry>
        </mxCell>
        <mxCell id="gHnU9WEsPto_mZrY3bqx-56" value="" style="shape=tableRow;horizontal=0;startSize=0;swimlaneHead=0;swimlaneBody=0;fillColor=none;collapsible=0;dropTarget=0;points=[[0,0.5],[1,0.5]];portConstraint=eastwest;top=0;left=0;right=0;bottom=0;" parent="gHnU9WEsPto_mZrY3bqx-52" vertex="1">
          <mxGeometry y="60" width="200" height="30" as="geometry" />
        </mxCell>
        <mxCell id="gHnU9WEsPto_mZrY3bqx-57" value="" style="shape=partialRectangle;connectable=0;fillColor=none;top=0;left=0;bottom=0;right=0;editable=1;overflow=hidden;whiteSpace=wrap;html=1;" parent="gHnU9WEsPto_mZrY3bqx-56" vertex="1">
          <mxGeometry width="30" height="30" as="geometry">
            <mxRectangle width="30" height="30" as="alternateBounds" />
          </mxGeometry>
        </mxCell>
        <mxCell id="gHnU9WEsPto_mZrY3bqx-58" value="account_number (int)" style="shape=partialRectangle;connectable=0;fillColor=none;top=0;left=0;bottom=0;right=0;align=left;spacingLeft=6;overflow=hidden;whiteSpace=wrap;html=1;" parent="gHnU9WEsPto_mZrY3bqx-56" vertex="1">
          <mxGeometry x="30" width="170" height="30" as="geometry">
            <mxRectangle width="170" height="30" as="alternateBounds" />
          </mxGeometry>
        </mxCell>
        <mxCell id="gHnU9WEsPto_mZrY3bqx-59" value="" style="shape=tableRow;horizontal=0;startSize=0;swimlaneHead=0;swimlaneBody=0;fillColor=none;collapsible=0;dropTarget=0;points=[[0,0.5],[1,0.5]];portConstraint=eastwest;top=0;left=0;right=0;bottom=0;" parent="gHnU9WEsPto_mZrY3bqx-52" vertex="1">
          <mxGeometry y="90" width="200" height="30" as="geometry" />
        </mxCell>
        <mxCell id="gHnU9WEsPto_mZrY3bqx-60" value="" style="shape=partialRectangle;connectable=0;fillColor=none;top=0;left=0;bottom=0;right=0;editable=1;overflow=hidden;whiteSpace=wrap;html=1;" parent="gHnU9WEsPto_mZrY3bqx-59" vertex="1">
          <mxGeometry width="30" height="30" as="geometry">
            <mxRectangle width="30" height="30" as="alternateBounds" />
          </mxGeometry>
        </mxCell>
        <mxCell id="gHnU9WEsPto_mZrY3bqx-61" value="account_balance (decimal)" style="shape=partialRectangle;connectable=0;fillColor=none;top=0;left=0;bottom=0;right=0;align=left;spacingLeft=6;overflow=hidden;whiteSpace=wrap;html=1;" parent="gHnU9WEsPto_mZrY3bqx-59" vertex="1">
          <mxGeometry x="30" width="170" height="30" as="geometry">
            <mxRectangle width="170" height="30" as="alternateBounds" />
          </mxGeometry>
        </mxCell>
      </root>
    </mxGraphModel>
  </diagram>
  <diagram id="M3XlIq18r7bXmdqaxYuO" name="class">
    <mxGraphModel dx="1584" dy="1892" grid="1" gridSize="10" guides="1" tooltips="1" connect="1" arrows="1" fold="1" page="1" pageScale="1" pageWidth="827" pageHeight="1169" background="none" math="0" shadow="0">
      <root>
        <mxCell id="0" />
        <mxCell id="1" parent="0" />
        <mxCell id="LboWqOTCBo-Mq5pc5LDq-1" value="User" style="swimlane;fontStyle=1;align=center;verticalAlign=top;childLayout=stackLayout;horizontal=1;startSize=26;horizontalStack=0;resizeParent=1;resizeParentMax=0;resizeLast=0;collapsible=1;marginBottom=0;whiteSpace=wrap;html=1;fillColor=#A9C4EB;strokeColor=#36393d;" parent="1" vertex="1">
          <mxGeometry y="-820" width="266" height="710" as="geometry" />
        </mxCell>
        <mxCell id="LboWqOTCBo-Mq5pc5LDq-2" value="- userId: Long" style="text;strokeColor=none;fillColor=none;align=left;verticalAlign=top;spacingLeft=4;spacingRight=4;overflow=hidden;rotatable=0;points=[[0,0.5],[1,0.5]];portConstraint=eastwest;whiteSpace=wrap;html=1;" parent="LboWqOTCBo-Mq5pc5LDq-1" vertex="1">
          <mxGeometry y="26" width="266" height="26" as="geometry" />
        </mxCell>
        <mxCell id="LboWqOTCBo-Mq5pc5LDq-4" value="- enabled: boolean" style="text;strokeColor=none;fillColor=none;align=left;verticalAlign=top;spacingLeft=4;spacingRight=4;overflow=hidden;rotatable=0;points=[[0,0.5],[1,0.5]];portConstraint=eastwest;whiteSpace=wrap;html=1;" parent="LboWqOTCBo-Mq5pc5LDq-1" vertex="1">
          <mxGeometry y="52" width="266" height="26" as="geometry" />
        </mxCell>
        <mxCell id="LboWqOTCBo-Mq5pc5LDq-9" value="- username: String" style="text;strokeColor=none;fillColor=none;align=left;verticalAlign=top;spacingLeft=4;spacingRight=4;overflow=hidden;rotatable=0;points=[[0,0.5],[1,0.5]];portConstraint=eastwest;whiteSpace=wrap;html=1;" parent="LboWqOTCBo-Mq5pc5LDq-1" vertex="1">
          <mxGeometry y="78" width="266" height="26" as="geometry" />
        </mxCell>
        <mxCell id="LboWqOTCBo-Mq5pc5LDq-10" value="- password: String" style="text;strokeColor=none;fillColor=none;align=left;verticalAlign=top;spacingLeft=4;spacingRight=4;overflow=hidden;rotatable=0;points=[[0,0.5],[1,0.5]];portConstraint=eastwest;whiteSpace=wrap;html=1;" parent="LboWqOTCBo-Mq5pc5LDq-1" vertex="1">
          <mxGeometry y="104" width="266" height="26" as="geometry" />
        </mxCell>
        <mxCell id="LboWqOTCBo-Mq5pc5LDq-11" value="- firstName: String" style="text;strokeColor=none;fillColor=none;align=left;verticalAlign=top;spacingLeft=4;spacingRight=4;overflow=hidden;rotatable=0;points=[[0,0.5],[1,0.5]];portConstraint=eastwest;whiteSpace=wrap;html=1;" parent="LboWqOTCBo-Mq5pc5LDq-1" vertex="1">
          <mxGeometry y="130" width="266" height="26" as="geometry" />
        </mxCell>
        <mxCell id="LboWqOTCBo-Mq5pc5LDq-12" value="- lastName: String" style="text;strokeColor=none;fillColor=none;align=left;verticalAlign=top;spacingLeft=4;spacingRight=4;overflow=hidden;rotatable=0;points=[[0,0.5],[1,0.5]];portConstraint=eastwest;whiteSpace=wrap;html=1;" parent="LboWqOTCBo-Mq5pc5LDq-1" vertex="1">
          <mxGeometry y="156" width="266" height="26" as="geometry" />
        </mxCell>
        <mxCell id="LboWqOTCBo-Mq5pc5LDq-13" value="- email: String" style="text;strokeColor=none;fillColor=none;align=left;verticalAlign=top;spacingLeft=4;spacingRight=4;overflow=hidden;rotatable=0;points=[[0,0.5],[1,0.5]];portConstraint=eastwest;whiteSpace=wrap;html=1;" parent="LboWqOTCBo-Mq5pc5LDq-1" vertex="1">
          <mxGeometry y="182" width="266" height="26" as="geometry" />
        </mxCell>
        <mxCell id="LboWqOTCBo-Mq5pc5LDq-14" value="- phoneNumber: String" style="text;strokeColor=none;fillColor=none;align=left;verticalAlign=top;spacingLeft=4;spacingRight=4;overflow=hidden;rotatable=0;points=[[0,0.5],[1,0.5]];portConstraint=eastwest;whiteSpace=wrap;html=1;" parent="LboWqOTCBo-Mq5pc5LDq-1" vertex="1">
          <mxGeometry y="208" width="266" height="26" as="geometry" />
        </mxCell>
        <mxCell id="mHUbQcksqps6T8qEqg67-29" value="/ currentAccount: CurrentAccount" style="text;strokeColor=none;fillColor=none;align=left;verticalAlign=top;spacingLeft=4;spacingRight=4;overflow=hidden;rotatable=0;points=[[0,0.5],[1,0.5]];portConstraint=eastwest;whiteSpace=wrap;html=1;" parent="LboWqOTCBo-Mq5pc5LDq-1" vertex="1">
          <mxGeometry y="234" width="266" height="26" as="geometry" />
        </mxCell>
        <mxCell id="mHUbQcksqps6T8qEqg67-28" value="/ SavingsAccount: SavingsAccount" style="text;strokeColor=none;fillColor=none;align=left;verticalAlign=top;spacingLeft=4;spacingRight=4;overflow=hidden;rotatable=0;points=[[0,0.5],[1,0.5]];portConstraint=eastwest;whiteSpace=wrap;html=1;" parent="LboWqOTCBo-Mq5pc5LDq-1" vertex="1">
          <mxGeometry y="260" width="266" height="26" as="geometry" />
        </mxCell>
        <mxCell id="LboWqOTCBo-Mq5pc5LDq-3" value="" style="line;strokeWidth=1;fillColor=none;align=left;verticalAlign=middle;spacingTop=-1;spacingLeft=3;spacingRight=3;rotatable=0;labelPosition=right;points=[];portConstraint=eastwest;strokeColor=inherit;" parent="LboWqOTCBo-Mq5pc5LDq-1" vertex="1">
          <mxGeometry y="286" width="266" height="8" as="geometry" />
        </mxCell>
        <mxCell id="LboWqOTCBo-Mq5pc5LDq-17" value="+ getUserId(): Long" style="text;strokeColor=none;fillColor=none;align=left;verticalAlign=top;spacingLeft=4;spacingRight=4;overflow=hidden;rotatable=0;points=[[0,0.5],[1,0.5]];portConstraint=eastwest;whiteSpace=wrap;html=1;" parent="LboWqOTCBo-Mq5pc5LDq-1" vertex="1">
          <mxGeometry y="294" width="266" height="26" as="geometry" />
        </mxCell>
        <mxCell id="LboWqOTCBo-Mq5pc5LDq-18" value="+ setUserId(Long): void" style="text;strokeColor=none;fillColor=none;align=left;verticalAlign=top;spacingLeft=4;spacingRight=4;overflow=hidden;rotatable=0;points=[[0,0.5],[1,0.5]];portConstraint=eastwest;whiteSpace=wrap;html=1;" parent="LboWqOTCBo-Mq5pc5LDq-1" vertex="1">
          <mxGeometry y="320" width="266" height="26" as="geometry" />
        </mxCell>
        <mxCell id="LboWqOTCBo-Mq5pc5LDq-19" value="+ getUsername(): String" style="text;strokeColor=none;fillColor=none;align=left;verticalAlign=top;spacingLeft=4;spacingRight=4;overflow=hidden;rotatable=0;points=[[0,0.5],[1,0.5]];portConstraint=eastwest;whiteSpace=wrap;html=1;" parent="LboWqOTCBo-Mq5pc5LDq-1" vertex="1">
          <mxGeometry y="346" width="266" height="26" as="geometry" />
        </mxCell>
        <mxCell id="LboWqOTCBo-Mq5pc5LDq-20" value="+ setUsername(String): void" style="text;strokeColor=none;fillColor=none;align=left;verticalAlign=top;spacingLeft=4;spacingRight=4;overflow=hidden;rotatable=0;points=[[0,0.5],[1,0.5]];portConstraint=eastwest;whiteSpace=wrap;html=1;" parent="LboWqOTCBo-Mq5pc5LDq-1" vertex="1">
          <mxGeometry y="372" width="266" height="26" as="geometry" />
        </mxCell>
        <mxCell id="mHUbQcksqps6T8qEqg67-16" value="+ getFirstName(): String" style="text;strokeColor=none;fillColor=none;align=left;verticalAlign=top;spacingLeft=4;spacingRight=4;overflow=hidden;rotatable=0;points=[[0,0.5],[1,0.5]];portConstraint=eastwest;whiteSpace=wrap;html=1;" parent="LboWqOTCBo-Mq5pc5LDq-1" vertex="1">
          <mxGeometry y="398" width="266" height="26" as="geometry" />
        </mxCell>
        <mxCell id="mHUbQcksqps6T8qEqg67-17" value="+ setFirstName(String): void" style="text;strokeColor=none;fillColor=none;align=left;verticalAlign=top;spacingLeft=4;spacingRight=4;overflow=hidden;rotatable=0;points=[[0,0.5],[1,0.5]];portConstraint=eastwest;whiteSpace=wrap;html=1;" parent="LboWqOTCBo-Mq5pc5LDq-1" vertex="1">
          <mxGeometry y="424" width="266" height="26" as="geometry" />
        </mxCell>
        <mxCell id="mHUbQcksqps6T8qEqg67-18" value="+ getLastName(): String" style="text;strokeColor=none;fillColor=none;align=left;verticalAlign=top;spacingLeft=4;spacingRight=4;overflow=hidden;rotatable=0;points=[[0,0.5],[1,0.5]];portConstraint=eastwest;whiteSpace=wrap;html=1;" parent="LboWqOTCBo-Mq5pc5LDq-1" vertex="1">
          <mxGeometry y="450" width="266" height="26" as="geometry" />
        </mxCell>
        <mxCell id="mHUbQcksqps6T8qEqg67-19" value="+ setLastName(String): void" style="text;strokeColor=none;fillColor=none;align=left;verticalAlign=top;spacingLeft=4;spacingRight=4;overflow=hidden;rotatable=0;points=[[0,0.5],[1,0.5]];portConstraint=eastwest;whiteSpace=wrap;html=1;" parent="LboWqOTCBo-Mq5pc5LDq-1" vertex="1">
          <mxGeometry y="476" width="266" height="26" as="geometry" />
        </mxCell>
        <mxCell id="mHUbQcksqps6T8qEqg67-20" value="+ getEmail(): String" style="text;strokeColor=none;fillColor=none;align=left;verticalAlign=top;spacingLeft=4;spacingRight=4;overflow=hidden;rotatable=0;points=[[0,0.5],[1,0.5]];portConstraint=eastwest;whiteSpace=wrap;html=1;" parent="LboWqOTCBo-Mq5pc5LDq-1" vertex="1">
          <mxGeometry y="502" width="266" height="26" as="geometry" />
        </mxCell>
        <mxCell id="mHUbQcksqps6T8qEqg67-21" value="+ setEmail(String): void" style="text;strokeColor=none;fillColor=none;align=left;verticalAlign=top;spacingLeft=4;spacingRight=4;overflow=hidden;rotatable=0;points=[[0,0.5],[1,0.5]];portConstraint=eastwest;whiteSpace=wrap;html=1;" parent="LboWqOTCBo-Mq5pc5LDq-1" vertex="1">
          <mxGeometry y="528" width="266" height="26" as="geometry" />
        </mxCell>
        <mxCell id="mHUbQcksqps6T8qEqg67-22" value="+ getPhoneNumber(): String" style="text;strokeColor=none;fillColor=none;align=left;verticalAlign=top;spacingLeft=4;spacingRight=4;overflow=hidden;rotatable=0;points=[[0,0.5],[1,0.5]];portConstraint=eastwest;whiteSpace=wrap;html=1;" parent="LboWqOTCBo-Mq5pc5LDq-1" vertex="1">
          <mxGeometry y="554" width="266" height="26" as="geometry" />
        </mxCell>
        <mxCell id="mHUbQcksqps6T8qEqg67-23" value="+ setPhoneNumber(String): void" style="text;strokeColor=none;fillColor=none;align=left;verticalAlign=top;spacingLeft=4;spacingRight=4;overflow=hidden;rotatable=0;points=[[0,0.5],[1,0.5]];portConstraint=eastwest;whiteSpace=wrap;html=1;" parent="LboWqOTCBo-Mq5pc5LDq-1" vertex="1">
          <mxGeometry y="580" width="266" height="26" as="geometry" />
        </mxCell>
        <mxCell id="mHUbQcksqps6T8qEqg67-24" value="+ getCurrentAccount(): CurrentAccount" style="text;strokeColor=none;fillColor=none;align=left;verticalAlign=top;spacingLeft=4;spacingRight=4;overflow=hidden;rotatable=0;points=[[0,0.5],[1,0.5]];portConstraint=eastwest;whiteSpace=wrap;html=1;" parent="LboWqOTCBo-Mq5pc5LDq-1" vertex="1">
          <mxGeometry y="606" width="266" height="26" as="geometry" />
        </mxCell>
        <mxCell id="mHUbQcksqps6T8qEqg67-25" value="+ setCurrentAccount(CurrentAccount): void" style="text;strokeColor=none;fillColor=none;align=left;verticalAlign=top;spacingLeft=4;spacingRight=4;overflow=hidden;rotatable=0;points=[[0,0.5],[1,0.5]];portConstraint=eastwest;whiteSpace=wrap;html=1;" parent="LboWqOTCBo-Mq5pc5LDq-1" vertex="1">
          <mxGeometry y="632" width="266" height="26" as="geometry" />
        </mxCell>
        <mxCell id="mHUbQcksqps6T8qEqg67-26" value="+ getSavingsAccount(): SavingsAccount" style="text;strokeColor=none;fillColor=none;align=left;verticalAlign=top;spacingLeft=4;spacingRight=4;overflow=hidden;rotatable=0;points=[[0,0.5],[1,0.5]];portConstraint=eastwest;whiteSpace=wrap;html=1;" parent="LboWqOTCBo-Mq5pc5LDq-1" vertex="1">
          <mxGeometry y="658" width="266" height="26" as="geometry" />
        </mxCell>
        <mxCell id="mHUbQcksqps6T8qEqg67-27" value="+ setSavingsAccount(SavingsAccount): void" style="text;strokeColor=none;fillColor=none;align=left;verticalAlign=top;spacingLeft=4;spacingRight=4;overflow=hidden;rotatable=0;points=[[0,0.5],[1,0.5]];portConstraint=eastwest;whiteSpace=wrap;html=1;" parent="LboWqOTCBo-Mq5pc5LDq-1" vertex="1">
          <mxGeometry y="684" width="266" height="26" as="geometry" />
        </mxCell>
        <mxCell id="mHUbQcksqps6T8qEqg67-2" value="&amp;nbsp;1" style="endArrow=none;html=1;endSize=12;startArrow=diamondThin;startSize=14;startFill=1;edgeStyle=orthogonalEdgeStyle;align=left;verticalAlign=bottom;rounded=0;exitX=1;exitY=0.5;exitDx=0;exitDy=0;endFill=0;" parent="1" source="mHUbQcksqps6T8qEqg67-29" target="mHUbQcksqps6T8qEqg67-30" edge="1">
          <mxGeometry x="-1" y="3" relative="1" as="geometry">
            <mxPoint x="306" y="-600" as="sourcePoint" />
            <mxPoint x="306" y="-600" as="targetPoint" />
          </mxGeometry>
        </mxCell>
        <mxCell id="mHUbQcksqps6T8qEqg67-30" value="CurrentAccount" style="swimlane;fontStyle=1;align=center;verticalAlign=top;childLayout=stackLayout;horizontal=1;startSize=26;horizontalStack=0;resizeParent=1;resizeParentMax=0;resizeLast=0;collapsible=1;marginBottom=0;whiteSpace=wrap;html=1;fillColor=#A9C4EB;strokeColor=#36393d;" parent="1" vertex="1">
          <mxGeometry x="346" y="-820" width="340" height="346" as="geometry" />
        </mxCell>
        <mxCell id="mHUbQcksqps6T8qEqg67-31" value="- id: Long" style="text;strokeColor=none;fillColor=none;align=left;verticalAlign=top;spacingLeft=4;spacingRight=4;overflow=hidden;rotatable=0;points=[[0,0.5],[1,0.5]];portConstraint=eastwest;whiteSpace=wrap;html=1;" parent="mHUbQcksqps6T8qEqg67-30" vertex="1">
          <mxGeometry y="26" width="340" height="26" as="geometry" />
        </mxCell>
        <mxCell id="mHUbQcksqps6T8qEqg67-32" value="- accoutNumber: int" style="text;strokeColor=none;fillColor=none;align=left;verticalAlign=top;spacingLeft=4;spacingRight=4;overflow=hidden;rotatable=0;points=[[0,0.5],[1,0.5]];portConstraint=eastwest;whiteSpace=wrap;html=1;" parent="mHUbQcksqps6T8qEqg67-30" vertex="1">
          <mxGeometry y="52" width="340" height="26" as="geometry" />
        </mxCell>
        <mxCell id="mHUbQcksqps6T8qEqg67-33" value="- accountBalance: BigDecimal" style="text;strokeColor=none;fillColor=none;align=left;verticalAlign=top;spacingLeft=4;spacingRight=4;overflow=hidden;rotatable=0;points=[[0,0.5],[1,0.5]];portConstraint=eastwest;whiteSpace=wrap;html=1;" parent="mHUbQcksqps6T8qEqg67-30" vertex="1">
          <mxGeometry y="78" width="340" height="26" as="geometry" />
        </mxCell>
        <mxCell id="mHUbQcksqps6T8qEqg67-34" value="/ currentTransactionList: List&amp;lt;CurrentTransaction&amp;gt;" style="text;strokeColor=none;fillColor=none;align=left;verticalAlign=top;spacingLeft=4;spacingRight=4;overflow=hidden;rotatable=0;points=[[0,0.5],[1,0.5]];portConstraint=eastwest;whiteSpace=wrap;html=1;" parent="mHUbQcksqps6T8qEqg67-30" vertex="1">
          <mxGeometry y="104" width="340" height="26" as="geometry" />
        </mxCell>
        <mxCell id="mHUbQcksqps6T8qEqg67-41" value="" style="line;strokeWidth=1;fillColor=none;align=left;verticalAlign=middle;spacingTop=-1;spacingLeft=3;spacingRight=3;rotatable=0;labelPosition=right;points=[];portConstraint=eastwest;strokeColor=inherit;" parent="mHUbQcksqps6T8qEqg67-30" vertex="1">
          <mxGeometry y="130" width="340" height="8" as="geometry" />
        </mxCell>
        <mxCell id="mHUbQcksqps6T8qEqg67-42" value="+ getId(): Long" style="text;strokeColor=none;fillColor=none;align=left;verticalAlign=top;spacingLeft=4;spacingRight=4;overflow=hidden;rotatable=0;points=[[0,0.5],[1,0.5]];portConstraint=eastwest;whiteSpace=wrap;html=1;" parent="mHUbQcksqps6T8qEqg67-30" vertex="1">
          <mxGeometry y="138" width="340" height="26" as="geometry" />
        </mxCell>
        <mxCell id="mHUbQcksqps6T8qEqg67-43" value="+ setId(Long): void" style="text;strokeColor=none;fillColor=none;align=left;verticalAlign=top;spacingLeft=4;spacingRight=4;overflow=hidden;rotatable=0;points=[[0,0.5],[1,0.5]];portConstraint=eastwest;whiteSpace=wrap;html=1;" parent="mHUbQcksqps6T8qEqg67-30" vertex="1">
          <mxGeometry y="164" width="340" height="26" as="geometry" />
        </mxCell>
        <mxCell id="mHUbQcksqps6T8qEqg67-44" value="+ getAccountNumber(): int" style="text;strokeColor=none;fillColor=none;align=left;verticalAlign=top;spacingLeft=4;spacingRight=4;overflow=hidden;rotatable=0;points=[[0,0.5],[1,0.5]];portConstraint=eastwest;whiteSpace=wrap;html=1;" parent="mHUbQcksqps6T8qEqg67-30" vertex="1">
          <mxGeometry y="190" width="340" height="26" as="geometry" />
        </mxCell>
        <mxCell id="mHUbQcksqps6T8qEqg67-45" value="+ setAccountNumber(int): void" style="text;strokeColor=none;fillColor=none;align=left;verticalAlign=top;spacingLeft=4;spacingRight=4;overflow=hidden;rotatable=0;points=[[0,0.5],[1,0.5]];portConstraint=eastwest;whiteSpace=wrap;html=1;" parent="mHUbQcksqps6T8qEqg67-30" vertex="1">
          <mxGeometry y="216" width="340" height="26" as="geometry" />
        </mxCell>
        <mxCell id="mHUbQcksqps6T8qEqg67-46" value="+ getAccountBalance(): BigDecimal" style="text;strokeColor=none;fillColor=none;align=left;verticalAlign=top;spacingLeft=4;spacingRight=4;overflow=hidden;rotatable=0;points=[[0,0.5],[1,0.5]];portConstraint=eastwest;whiteSpace=wrap;html=1;" parent="mHUbQcksqps6T8qEqg67-30" vertex="1">
          <mxGeometry y="242" width="340" height="26" as="geometry" />
        </mxCell>
        <mxCell id="mHUbQcksqps6T8qEqg67-47" value="+ setAccountBalance(BigDecimal): void" style="text;strokeColor=none;fillColor=none;align=left;verticalAlign=top;spacingLeft=4;spacingRight=4;overflow=hidden;rotatable=0;points=[[0,0.5],[1,0.5]];portConstraint=eastwest;whiteSpace=wrap;html=1;" parent="mHUbQcksqps6T8qEqg67-30" vertex="1">
          <mxGeometry y="268" width="340" height="26" as="geometry" />
        </mxCell>
        <mxCell id="mHUbQcksqps6T8qEqg67-48" value="+ getCurrentTransactionList(): List&amp;lt;CurrentTransaction&amp;gt;" style="text;strokeColor=none;fillColor=none;align=left;verticalAlign=top;spacingLeft=4;spacingRight=4;overflow=hidden;rotatable=0;points=[[0,0.5],[1,0.5]];portConstraint=eastwest;whiteSpace=wrap;html=1;" parent="mHUbQcksqps6T8qEqg67-30" vertex="1">
          <mxGeometry y="294" width="340" height="26" as="geometry" />
        </mxCell>
        <mxCell id="mHUbQcksqps6T8qEqg67-49" value="+ setCurrentTransactionList(List&amp;lt;CurrentTransaction&amp;gt;): void" style="text;strokeColor=none;fillColor=none;align=left;verticalAlign=top;spacingLeft=4;spacingRight=4;overflow=hidden;rotatable=0;points=[[0,0.5],[1,0.5]];portConstraint=eastwest;whiteSpace=wrap;html=1;" parent="mHUbQcksqps6T8qEqg67-30" vertex="1">
          <mxGeometry y="320" width="340" height="26" as="geometry" />
        </mxCell>
        <mxCell id="mHUbQcksqps6T8qEqg67-58" value="SavingsAccount" style="swimlane;fontStyle=1;align=center;verticalAlign=top;childLayout=stackLayout;horizontal=1;startSize=26;horizontalStack=0;resizeParent=1;resizeParentMax=0;resizeLast=0;collapsible=1;marginBottom=0;whiteSpace=wrap;html=1;fillColor=#A9C4EB;strokeColor=#36393d;" parent="1" vertex="1">
          <mxGeometry x="346" y="-440" width="340" height="346" as="geometry" />
        </mxCell>
        <mxCell id="mHUbQcksqps6T8qEqg67-59" value="- id: Long" style="text;strokeColor=none;fillColor=none;align=left;verticalAlign=top;spacingLeft=4;spacingRight=4;overflow=hidden;rotatable=0;points=[[0,0.5],[1,0.5]];portConstraint=eastwest;whiteSpace=wrap;html=1;" parent="mHUbQcksqps6T8qEqg67-58" vertex="1">
          <mxGeometry y="26" width="340" height="26" as="geometry" />
        </mxCell>
        <mxCell id="mHUbQcksqps6T8qEqg67-60" value="- accoutNumber: int" style="text;strokeColor=none;fillColor=none;align=left;verticalAlign=top;spacingLeft=4;spacingRight=4;overflow=hidden;rotatable=0;points=[[0,0.5],[1,0.5]];portConstraint=eastwest;whiteSpace=wrap;html=1;" parent="mHUbQcksqps6T8qEqg67-58" vertex="1">
          <mxGeometry y="52" width="340" height="26" as="geometry" />
        </mxCell>
        <mxCell id="mHUbQcksqps6T8qEqg67-61" value="- accountBalance: BigDecimal" style="text;strokeColor=none;fillColor=none;align=left;verticalAlign=top;spacingLeft=4;spacingRight=4;overflow=hidden;rotatable=0;points=[[0,0.5],[1,0.5]];portConstraint=eastwest;whiteSpace=wrap;html=1;" parent="mHUbQcksqps6T8qEqg67-58" vertex="1">
          <mxGeometry y="78" width="340" height="26" as="geometry" />
        </mxCell>
        <mxCell id="mHUbQcksqps6T8qEqg67-62" value="/ savingsTransactionList: List&amp;lt;SavingsTransaction&amp;gt;" style="text;strokeColor=none;fillColor=none;align=left;verticalAlign=top;spacingLeft=4;spacingRight=4;overflow=hidden;rotatable=0;points=[[0,0.5],[1,0.5]];portConstraint=eastwest;whiteSpace=wrap;html=1;" parent="mHUbQcksqps6T8qEqg67-58" vertex="1">
          <mxGeometry y="104" width="340" height="26" as="geometry" />
        </mxCell>
        <mxCell id="mHUbQcksqps6T8qEqg67-63" value="" style="line;strokeWidth=1;fillColor=none;align=left;verticalAlign=middle;spacingTop=-1;spacingLeft=3;spacingRight=3;rotatable=0;labelPosition=right;points=[];portConstraint=eastwest;strokeColor=inherit;" parent="mHUbQcksqps6T8qEqg67-58" vertex="1">
          <mxGeometry y="130" width="340" height="8" as="geometry" />
        </mxCell>
        <mxCell id="mHUbQcksqps6T8qEqg67-64" value="+ getId(): Long" style="text;strokeColor=none;fillColor=none;align=left;verticalAlign=top;spacingLeft=4;spacingRight=4;overflow=hidden;rotatable=0;points=[[0,0.5],[1,0.5]];portConstraint=eastwest;whiteSpace=wrap;html=1;" parent="mHUbQcksqps6T8qEqg67-58" vertex="1">
          <mxGeometry y="138" width="340" height="26" as="geometry" />
        </mxCell>
        <mxCell id="mHUbQcksqps6T8qEqg67-65" value="+ setId(Long): void" style="text;strokeColor=none;fillColor=none;align=left;verticalAlign=top;spacingLeft=4;spacingRight=4;overflow=hidden;rotatable=0;points=[[0,0.5],[1,0.5]];portConstraint=eastwest;whiteSpace=wrap;html=1;" parent="mHUbQcksqps6T8qEqg67-58" vertex="1">
          <mxGeometry y="164" width="340" height="26" as="geometry" />
        </mxCell>
        <mxCell id="mHUbQcksqps6T8qEqg67-66" value="+ getAccountNumber(): int" style="text;strokeColor=none;fillColor=none;align=left;verticalAlign=top;spacingLeft=4;spacingRight=4;overflow=hidden;rotatable=0;points=[[0,0.5],[1,0.5]];portConstraint=eastwest;whiteSpace=wrap;html=1;" parent="mHUbQcksqps6T8qEqg67-58" vertex="1">
          <mxGeometry y="190" width="340" height="26" as="geometry" />
        </mxCell>
        <mxCell id="mHUbQcksqps6T8qEqg67-67" value="+ setAccountNumber(int): void" style="text;strokeColor=none;fillColor=none;align=left;verticalAlign=top;spacingLeft=4;spacingRight=4;overflow=hidden;rotatable=0;points=[[0,0.5],[1,0.5]];portConstraint=eastwest;whiteSpace=wrap;html=1;" parent="mHUbQcksqps6T8qEqg67-58" vertex="1">
          <mxGeometry y="216" width="340" height="26" as="geometry" />
        </mxCell>
        <mxCell id="mHUbQcksqps6T8qEqg67-68" value="+ getAccountBalance(): BigDecimal" style="text;strokeColor=none;fillColor=none;align=left;verticalAlign=top;spacingLeft=4;spacingRight=4;overflow=hidden;rotatable=0;points=[[0,0.5],[1,0.5]];portConstraint=eastwest;whiteSpace=wrap;html=1;" parent="mHUbQcksqps6T8qEqg67-58" vertex="1">
          <mxGeometry y="242" width="340" height="26" as="geometry" />
        </mxCell>
        <mxCell id="mHUbQcksqps6T8qEqg67-69" value="+ setAccountBalance(BigDecimal): void" style="text;strokeColor=none;fillColor=none;align=left;verticalAlign=top;spacingLeft=4;spacingRight=4;overflow=hidden;rotatable=0;points=[[0,0.5],[1,0.5]];portConstraint=eastwest;whiteSpace=wrap;html=1;" parent="mHUbQcksqps6T8qEqg67-58" vertex="1">
          <mxGeometry y="268" width="340" height="26" as="geometry" />
        </mxCell>
        <mxCell id="mHUbQcksqps6T8qEqg67-70" value="+ getSavingsTransactionList(): List&amp;lt;SavingsTransaction&amp;gt;" style="text;strokeColor=none;fillColor=none;align=left;verticalAlign=top;spacingLeft=4;spacingRight=4;overflow=hidden;rotatable=0;points=[[0,0.5],[1,0.5]];portConstraint=eastwest;whiteSpace=wrap;html=1;" parent="mHUbQcksqps6T8qEqg67-58" vertex="1">
          <mxGeometry y="294" width="340" height="26" as="geometry" />
        </mxCell>
        <mxCell id="mHUbQcksqps6T8qEqg67-71" value="+ setSavingsTransactionList(List&amp;lt;SavingsTransaction&amp;gt;): void" style="text;strokeColor=none;fillColor=none;align=left;verticalAlign=top;spacingLeft=4;spacingRight=4;overflow=hidden;rotatable=0;points=[[0,0.5],[1,0.5]];portConstraint=eastwest;whiteSpace=wrap;html=1;" parent="mHUbQcksqps6T8qEqg67-58" vertex="1">
          <mxGeometry y="320" width="340" height="26" as="geometry" />
        </mxCell>
        <mxCell id="mHUbQcksqps6T8qEqg67-73" value="&amp;nbsp;1" style="endArrow=none;html=1;endSize=12;startArrow=diamondThin;startSize=14;startFill=1;edgeStyle=orthogonalEdgeStyle;align=left;verticalAlign=bottom;rounded=0;endFill=0;" parent="1" source="mHUbQcksqps6T8qEqg67-16" target="mHUbQcksqps6T8qEqg67-58" edge="1">
          <mxGeometry x="-1" y="3" relative="1" as="geometry">
            <mxPoint x="276" y="-455" as="sourcePoint" />
            <mxPoint x="356" y="-637" as="targetPoint" />
          </mxGeometry>
        </mxCell>
        <mxCell id="mHUbQcksqps6T8qEqg67-74" value="CurrentTransaction" style="swimlane;fontStyle=1;align=center;verticalAlign=top;childLayout=stackLayout;horizontal=1;startSize=26;horizontalStack=0;resizeParent=1;resizeParentMax=0;resizeLast=0;collapsible=1;marginBottom=0;whiteSpace=wrap;html=1;fillColor=#A9C4EB;strokeColor=#36393d;" parent="1" vertex="1">
          <mxGeometry x="756" y="-1160" width="340" height="696" as="geometry" />
        </mxCell>
        <mxCell id="mHUbQcksqps6T8qEqg67-75" value="- id: Long" style="text;strokeColor=none;fillColor=none;align=left;verticalAlign=top;spacingLeft=4;spacingRight=4;overflow=hidden;rotatable=0;points=[[0,0.5],[1,0.5]];portConstraint=eastwest;whiteSpace=wrap;html=1;" parent="mHUbQcksqps6T8qEqg67-74" vertex="1">
          <mxGeometry y="26" width="340" height="26" as="geometry" />
        </mxCell>
        <mxCell id="mHUbQcksqps6T8qEqg67-76" value="- date: Date" style="text;strokeColor=none;fillColor=none;align=left;verticalAlign=top;spacingLeft=4;spacingRight=4;overflow=hidden;rotatable=0;points=[[0,0.5],[1,0.5]];portConstraint=eastwest;whiteSpace=wrap;html=1;" parent="mHUbQcksqps6T8qEqg67-74" vertex="1">
          <mxGeometry y="52" width="340" height="26" as="geometry" />
        </mxCell>
        <mxCell id="mHUbQcksqps6T8qEqg67-77" value="- description: String" style="text;strokeColor=none;fillColor=none;align=left;verticalAlign=top;spacingLeft=4;spacingRight=4;overflow=hidden;rotatable=0;points=[[0,0.5],[1,0.5]];portConstraint=eastwest;whiteSpace=wrap;html=1;" parent="mHUbQcksqps6T8qEqg67-74" vertex="1">
          <mxGeometry y="78" width="340" height="26" as="geometry" />
        </mxCell>
        <mxCell id="rOSaS0t3Ow1pzrRxXMCg-2" value="- type: String" style="text;strokeColor=none;fillColor=none;align=left;verticalAlign=top;spacingLeft=4;spacingRight=4;overflow=hidden;rotatable=0;points=[[0,0.5],[1,0.5]];portConstraint=eastwest;whiteSpace=wrap;html=1;" parent="mHUbQcksqps6T8qEqg67-74" vertex="1">
          <mxGeometry y="104" width="340" height="26" as="geometry" />
        </mxCell>
        <mxCell id="rOSaS0t3Ow1pzrRxXMCg-3" value="- status: String" style="text;strokeColor=none;fillColor=none;align=left;verticalAlign=top;spacingLeft=4;spacingRight=4;overflow=hidden;rotatable=0;points=[[0,0.5],[1,0.5]];portConstraint=eastwest;whiteSpace=wrap;html=1;" parent="mHUbQcksqps6T8qEqg67-74" vertex="1">
          <mxGeometry y="130" width="340" height="26" as="geometry" />
        </mxCell>
        <mxCell id="rOSaS0t3Ow1pzrRxXMCg-4" value="- amount: double" style="text;strokeColor=none;fillColor=none;align=left;verticalAlign=top;spacingLeft=4;spacingRight=4;overflow=hidden;rotatable=0;points=[[0,0.5],[1,0.5]];portConstraint=eastwest;whiteSpace=wrap;html=1;" parent="mHUbQcksqps6T8qEqg67-74" vertex="1">
          <mxGeometry y="156" width="340" height="26" as="geometry" />
        </mxCell>
        <mxCell id="mHUbQcksqps6T8qEqg67-78" value="/ currentAccount: CurrentAccount" style="text;strokeColor=none;fillColor=none;align=left;verticalAlign=top;spacingLeft=4;spacingRight=4;overflow=hidden;rotatable=0;points=[[0,0.5],[1,0.5]];portConstraint=eastwest;whiteSpace=wrap;html=1;" parent="mHUbQcksqps6T8qEqg67-74" vertex="1">
          <mxGeometry y="182" width="340" height="26" as="geometry" />
        </mxCell>
        <mxCell id="mHUbQcksqps6T8qEqg67-79" value="" style="line;strokeWidth=1;fillColor=none;align=left;verticalAlign=middle;spacingTop=-1;spacingLeft=3;spacingRight=3;rotatable=0;labelPosition=right;points=[];portConstraint=eastwest;strokeColor=inherit;" parent="mHUbQcksqps6T8qEqg67-74" vertex="1">
          <mxGeometry y="208" width="340" height="8" as="geometry" />
        </mxCell>
        <mxCell id="mHUbQcksqps6T8qEqg67-80" value="+ CurrentTransaction()" style="text;strokeColor=none;fillColor=none;align=left;verticalAlign=top;spacingLeft=4;spacingRight=4;overflow=hidden;rotatable=0;points=[[0,0.5],[1,0.5]];portConstraint=eastwest;whiteSpace=wrap;html=1;" parent="mHUbQcksqps6T8qEqg67-74" vertex="1">
          <mxGeometry y="216" width="340" height="26" as="geometry" />
        </mxCell>
        <mxCell id="pZVOUU4Ujg4aQ-b8wELb-2" value="+ CurrentTransaction (Date, String, String, String, double, BigDecimal, CurrentAccount)" style="text;strokeColor=none;fillColor=none;align=left;verticalAlign=top;spacingLeft=4;spacingRight=4;overflow=hidden;rotatable=0;points=[[0,0.5],[1,0.5]];portConstraint=eastwest;whiteSpace=wrap;html=1;" parent="mHUbQcksqps6T8qEqg67-74" vertex="1">
          <mxGeometry y="242" width="340" height="38" as="geometry" />
        </mxCell>
        <mxCell id="pZVOUU4Ujg4aQ-b8wELb-1" value="+ getId(): Long" style="text;strokeColor=none;fillColor=none;align=left;verticalAlign=top;spacingLeft=4;spacingRight=4;overflow=hidden;rotatable=0;points=[[0,0.5],[1,0.5]];portConstraint=eastwest;whiteSpace=wrap;html=1;" parent="mHUbQcksqps6T8qEqg67-74" vertex="1">
          <mxGeometry y="280" width="340" height="26" as="geometry" />
        </mxCell>
        <mxCell id="pZVOUU4Ujg4aQ-b8wELb-9" value="+ setId(Long): void" style="text;strokeColor=none;fillColor=none;align=left;verticalAlign=top;spacingLeft=4;spacingRight=4;overflow=hidden;rotatable=0;points=[[0,0.5],[1,0.5]];portConstraint=eastwest;whiteSpace=wrap;html=1;" parent="mHUbQcksqps6T8qEqg67-74" vertex="1">
          <mxGeometry y="306" width="340" height="26" as="geometry" />
        </mxCell>
        <mxCell id="pZVOUU4Ujg4aQ-b8wELb-8" value="+ getDate(): Date" style="text;strokeColor=none;fillColor=none;align=left;verticalAlign=top;spacingLeft=4;spacingRight=4;overflow=hidden;rotatable=0;points=[[0,0.5],[1,0.5]];portConstraint=eastwest;whiteSpace=wrap;html=1;" parent="mHUbQcksqps6T8qEqg67-74" vertex="1">
          <mxGeometry y="332" width="340" height="26" as="geometry" />
        </mxCell>
        <mxCell id="pZVOUU4Ujg4aQ-b8wELb-7" value="+ setDate(Date) : void" style="text;strokeColor=none;fillColor=none;align=left;verticalAlign=top;spacingLeft=4;spacingRight=4;overflow=hidden;rotatable=0;points=[[0,0.5],[1,0.5]];portConstraint=eastwest;whiteSpace=wrap;html=1;" parent="mHUbQcksqps6T8qEqg67-74" vertex="1">
          <mxGeometry y="358" width="340" height="26" as="geometry" />
        </mxCell>
        <mxCell id="pZVOUU4Ujg4aQ-b8wELb-4" value="+ getDescription(): String" style="text;strokeColor=none;fillColor=none;align=left;verticalAlign=top;spacingLeft=4;spacingRight=4;overflow=hidden;rotatable=0;points=[[0,0.5],[1,0.5]];portConstraint=eastwest;whiteSpace=wrap;html=1;" parent="mHUbQcksqps6T8qEqg67-74" vertex="1">
          <mxGeometry y="384" width="340" height="26" as="geometry" />
        </mxCell>
        <mxCell id="pZVOUU4Ujg4aQ-b8wELb-5" value="+ setDescription(String) : void" style="text;strokeColor=none;fillColor=none;align=left;verticalAlign=top;spacingLeft=4;spacingRight=4;overflow=hidden;rotatable=0;points=[[0,0.5],[1,0.5]];portConstraint=eastwest;whiteSpace=wrap;html=1;" parent="mHUbQcksqps6T8qEqg67-74" vertex="1">
          <mxGeometry y="410" width="340" height="26" as="geometry" />
        </mxCell>
        <mxCell id="pZVOUU4Ujg4aQ-b8wELb-10" value="+ getType(): String" style="text;strokeColor=none;fillColor=none;align=left;verticalAlign=top;spacingLeft=4;spacingRight=4;overflow=hidden;rotatable=0;points=[[0,0.5],[1,0.5]];portConstraint=eastwest;whiteSpace=wrap;html=1;" parent="mHUbQcksqps6T8qEqg67-74" vertex="1">
          <mxGeometry y="436" width="340" height="26" as="geometry" />
        </mxCell>
        <mxCell id="pZVOUU4Ujg4aQ-b8wELb-11" value="+ setType(String): void" style="text;strokeColor=none;fillColor=none;align=left;verticalAlign=top;spacingLeft=4;spacingRight=4;overflow=hidden;rotatable=0;points=[[0,0.5],[1,0.5]];portConstraint=eastwest;whiteSpace=wrap;html=1;" parent="mHUbQcksqps6T8qEqg67-74" vertex="1">
          <mxGeometry y="462" width="340" height="26" as="geometry" />
        </mxCell>
        <mxCell id="pZVOUU4Ujg4aQ-b8wELb-13" value="+ getStatus(): String" style="text;strokeColor=none;fillColor=none;align=left;verticalAlign=top;spacingLeft=4;spacingRight=4;overflow=hidden;rotatable=0;points=[[0,0.5],[1,0.5]];portConstraint=eastwest;whiteSpace=wrap;html=1;" parent="mHUbQcksqps6T8qEqg67-74" vertex="1">
          <mxGeometry y="488" width="340" height="26" as="geometry" />
        </mxCell>
        <mxCell id="pZVOUU4Ujg4aQ-b8wELb-20" value="+ setStatus(String): void" style="text;strokeColor=none;fillColor=none;align=left;verticalAlign=top;spacingLeft=4;spacingRight=4;overflow=hidden;rotatable=0;points=[[0,0.5],[1,0.5]];portConstraint=eastwest;whiteSpace=wrap;html=1;" parent="mHUbQcksqps6T8qEqg67-74" vertex="1">
          <mxGeometry y="514" width="340" height="26" as="geometry" />
        </mxCell>
        <mxCell id="pZVOUU4Ujg4aQ-b8wELb-19" value="+ getAmount(): double" style="text;strokeColor=none;fillColor=none;align=left;verticalAlign=top;spacingLeft=4;spacingRight=4;overflow=hidden;rotatable=0;points=[[0,0.5],[1,0.5]];portConstraint=eastwest;whiteSpace=wrap;html=1;" parent="mHUbQcksqps6T8qEqg67-74" vertex="1">
          <mxGeometry y="540" width="340" height="26" as="geometry" />
        </mxCell>
        <mxCell id="pZVOUU4Ujg4aQ-b8wELb-18" value="+ setAmount(double) : void" style="text;strokeColor=none;fillColor=none;align=left;verticalAlign=top;spacingLeft=4;spacingRight=4;overflow=hidden;rotatable=0;points=[[0,0.5],[1,0.5]];portConstraint=eastwest;whiteSpace=wrap;html=1;" parent="mHUbQcksqps6T8qEqg67-74" vertex="1">
          <mxGeometry y="566" width="340" height="26" as="geometry" />
        </mxCell>
        <mxCell id="pZVOUU4Ujg4aQ-b8wELb-17" value="+ getAvailableBalance(): BigDecimal" style="text;strokeColor=none;fillColor=none;align=left;verticalAlign=top;spacingLeft=4;spacingRight=4;overflow=hidden;rotatable=0;points=[[0,0.5],[1,0.5]];portConstraint=eastwest;whiteSpace=wrap;html=1;" parent="mHUbQcksqps6T8qEqg67-74" vertex="1">
          <mxGeometry y="592" width="340" height="26" as="geometry" />
        </mxCell>
        <mxCell id="pZVOUU4Ujg4aQ-b8wELb-16" value="+ setAvailableBalance(BigDecimal) : void" style="text;strokeColor=none;fillColor=none;align=left;verticalAlign=top;spacingLeft=4;spacingRight=4;overflow=hidden;rotatable=0;points=[[0,0.5],[1,0.5]];portConstraint=eastwest;whiteSpace=wrap;html=1;" parent="mHUbQcksqps6T8qEqg67-74" vertex="1">
          <mxGeometry y="618" width="340" height="26" as="geometry" />
        </mxCell>
        <mxCell id="pZVOUU4Ujg4aQ-b8wELb-15" value="+ getCurrentAccount(): CurrentAccount" style="text;strokeColor=none;fillColor=none;align=left;verticalAlign=top;spacingLeft=4;spacingRight=4;overflow=hidden;rotatable=0;points=[[0,0.5],[1,0.5]];portConstraint=eastwest;whiteSpace=wrap;html=1;" parent="mHUbQcksqps6T8qEqg67-74" vertex="1">
          <mxGeometry y="644" width="340" height="26" as="geometry" />
        </mxCell>
        <mxCell id="pZVOUU4Ujg4aQ-b8wELb-14" value="+ setCurrentAccount(CurrentAccount) : void" style="text;strokeColor=none;fillColor=none;align=left;verticalAlign=top;spacingLeft=4;spacingRight=4;overflow=hidden;rotatable=0;points=[[0,0.5],[1,0.5]];portConstraint=eastwest;whiteSpace=wrap;html=1;" parent="mHUbQcksqps6T8qEqg67-74" vertex="1">
          <mxGeometry y="670" width="340" height="26" as="geometry" />
        </mxCell>
        <mxCell id="mHUbQcksqps6T8qEqg67-88" value="&lt;span style=&quot;color: rgb(0, 0, 0); font-family: Helvetica; font-size: 11px; font-style: normal; font-variant-ligatures: normal; font-variant-caps: normal; font-weight: 400; letter-spacing: normal; orphans: 2; text-align: left; text-indent: 0px; text-transform: none; widows: 2; word-spacing: 0px; -webkit-text-stroke-width: 0px; white-space: nowrap; background-color: rgb(255, 255, 255); text-decoration-thickness: initial; text-decoration-style: initial; text-decoration-color: initial; display: inline !important; float: none;&quot;&gt;1&lt;/span&gt;" style="text;whiteSpace=wrap;html=1;" parent="1" vertex="1">
          <mxGeometry x="331" y="-290" width="20" height="20" as="geometry" />
        </mxCell>
        <mxCell id="mHUbQcksqps6T8qEqg67-89" value="&lt;span style=&quot;color: rgb(0, 0, 0); font-family: Helvetica; font-size: 11px; font-style: normal; font-variant-ligatures: normal; font-variant-caps: normal; font-weight: 400; letter-spacing: normal; orphans: 2; text-align: left; text-indent: 0px; text-transform: none; widows: 2; word-spacing: 0px; -webkit-text-stroke-width: 0px; white-space: nowrap; background-color: rgb(255, 255, 255); text-decoration-thickness: initial; text-decoration-style: initial; text-decoration-color: initial; display: inline !important; float: none;&quot;&gt;1&lt;/span&gt;" style="text;whiteSpace=wrap;html=1;" parent="1" vertex="1">
          <mxGeometry x="331" y="-670" width="20" height="20" as="geometry" />
        </mxCell>
        <mxCell id="mHUbQcksqps6T8qEqg67-90" style="edgeStyle=orthogonalEdgeStyle;rounded=0;orthogonalLoop=1;jettySize=auto;html=1;endArrow=none;endFill=0;" parent="1" source="mHUbQcksqps6T8qEqg67-44" target="mHUbQcksqps6T8qEqg67-74" edge="1">
          <mxGeometry relative="1" as="geometry" />
        </mxCell>
        <mxCell id="mHUbQcksqps6T8qEqg67-91" value="&lt;span style=&quot;color: rgb(0, 0, 0); font-family: Helvetica; font-size: 11px; font-style: normal; font-variant-ligatures: normal; font-variant-caps: normal; font-weight: 400; letter-spacing: normal; orphans: 2; text-align: left; text-indent: 0px; text-transform: none; widows: 2; word-spacing: 0px; -webkit-text-stroke-width: 0px; white-space: nowrap; background-color: rgb(255, 255, 255); text-decoration-thickness: initial; text-decoration-style: initial; text-decoration-color: initial; display: inline !important; float: none;&quot;&gt;1&lt;/span&gt;" style="text;whiteSpace=wrap;html=1;" parent="1" vertex="1">
          <mxGeometry x="690" y="-640" width="30" height="20" as="geometry" />
        </mxCell>
        <mxCell id="mHUbQcksqps6T8qEqg67-92" value="&lt;span style=&quot;color: rgb(0, 0, 0); font-family: Helvetica; font-size: 11px; font-style: normal; font-variant-ligatures: normal; font-variant-caps: normal; font-weight: 400; letter-spacing: normal; orphans: 2; text-align: left; text-indent: 0px; text-transform: none; widows: 2; word-spacing: 0px; -webkit-text-stroke-width: 0px; white-space: nowrap; background-color: rgb(255, 255, 255); text-decoration-thickness: initial; text-decoration-style: initial; text-decoration-color: initial; display: inline !important; float: none;&quot;&gt;*&lt;/span&gt;" style="text;whiteSpace=wrap;html=1;" parent="1" vertex="1">
          <mxGeometry x="744" y="-832" width="30" height="20" as="geometry" />
        </mxCell>
        <mxCell id="pZVOUU4Ujg4aQ-b8wELb-21" value="SavingsTransaction" style="swimlane;fontStyle=1;align=center;verticalAlign=top;childLayout=stackLayout;horizontal=1;startSize=26;horizontalStack=0;resizeParent=1;resizeParentMax=0;resizeLast=0;collapsible=1;marginBottom=0;whiteSpace=wrap;html=1;fillColor=#A9C4EB;strokeColor=#36393d;" parent="1" vertex="1">
          <mxGeometry x="756" y="-440" width="340" height="696" as="geometry" />
        </mxCell>
        <mxCell id="pZVOUU4Ujg4aQ-b8wELb-22" value="- id: Long" style="text;strokeColor=none;fillColor=none;align=left;verticalAlign=top;spacingLeft=4;spacingRight=4;overflow=hidden;rotatable=0;points=[[0,0.5],[1,0.5]];portConstraint=eastwest;whiteSpace=wrap;html=1;" parent="pZVOUU4Ujg4aQ-b8wELb-21" vertex="1">
          <mxGeometry y="26" width="340" height="26" as="geometry" />
        </mxCell>
        <mxCell id="pZVOUU4Ujg4aQ-b8wELb-23" value="- date: Date" style="text;strokeColor=none;fillColor=none;align=left;verticalAlign=top;spacingLeft=4;spacingRight=4;overflow=hidden;rotatable=0;points=[[0,0.5],[1,0.5]];portConstraint=eastwest;whiteSpace=wrap;html=1;" parent="pZVOUU4Ujg4aQ-b8wELb-21" vertex="1">
          <mxGeometry y="52" width="340" height="26" as="geometry" />
        </mxCell>
        <mxCell id="pZVOUU4Ujg4aQ-b8wELb-24" value="- description: String" style="text;strokeColor=none;fillColor=none;align=left;verticalAlign=top;spacingLeft=4;spacingRight=4;overflow=hidden;rotatable=0;points=[[0,0.5],[1,0.5]];portConstraint=eastwest;whiteSpace=wrap;html=1;" parent="pZVOUU4Ujg4aQ-b8wELb-21" vertex="1">
          <mxGeometry y="78" width="340" height="26" as="geometry" />
        </mxCell>
        <mxCell id="pZVOUU4Ujg4aQ-b8wELb-25" value="- type: String" style="text;strokeColor=none;fillColor=none;align=left;verticalAlign=top;spacingLeft=4;spacingRight=4;overflow=hidden;rotatable=0;points=[[0,0.5],[1,0.5]];portConstraint=eastwest;whiteSpace=wrap;html=1;" parent="pZVOUU4Ujg4aQ-b8wELb-21" vertex="1">
          <mxGeometry y="104" width="340" height="26" as="geometry" />
        </mxCell>
        <mxCell id="pZVOUU4Ujg4aQ-b8wELb-26" value="- status: String" style="text;strokeColor=none;fillColor=none;align=left;verticalAlign=top;spacingLeft=4;spacingRight=4;overflow=hidden;rotatable=0;points=[[0,0.5],[1,0.5]];portConstraint=eastwest;whiteSpace=wrap;html=1;" parent="pZVOUU4Ujg4aQ-b8wELb-21" vertex="1">
          <mxGeometry y="130" width="340" height="26" as="geometry" />
        </mxCell>
        <mxCell id="pZVOUU4Ujg4aQ-b8wELb-27" value="- amount: double" style="text;strokeColor=none;fillColor=none;align=left;verticalAlign=top;spacingLeft=4;spacingRight=4;overflow=hidden;rotatable=0;points=[[0,0.5],[1,0.5]];portConstraint=eastwest;whiteSpace=wrap;html=1;" parent="pZVOUU4Ujg4aQ-b8wELb-21" vertex="1">
          <mxGeometry y="156" width="340" height="26" as="geometry" />
        </mxCell>
        <mxCell id="pZVOUU4Ujg4aQ-b8wELb-28" value="/ savingsAccount: SavingsAccount" style="text;strokeColor=none;fillColor=none;align=left;verticalAlign=top;spacingLeft=4;spacingRight=4;overflow=hidden;rotatable=0;points=[[0,0.5],[1,0.5]];portConstraint=eastwest;whiteSpace=wrap;html=1;" parent="pZVOUU4Ujg4aQ-b8wELb-21" vertex="1">
          <mxGeometry y="182" width="340" height="26" as="geometry" />
        </mxCell>
        <mxCell id="pZVOUU4Ujg4aQ-b8wELb-29" value="" style="line;strokeWidth=1;fillColor=none;align=left;verticalAlign=middle;spacingTop=-1;spacingLeft=3;spacingRight=3;rotatable=0;labelPosition=right;points=[];portConstraint=eastwest;strokeColor=inherit;" parent="pZVOUU4Ujg4aQ-b8wELb-21" vertex="1">
          <mxGeometry y="208" width="340" height="8" as="geometry" />
        </mxCell>
        <mxCell id="pZVOUU4Ujg4aQ-b8wELb-30" value="+ SavingsTransaction()" style="text;strokeColor=none;fillColor=none;align=left;verticalAlign=top;spacingLeft=4;spacingRight=4;overflow=hidden;rotatable=0;points=[[0,0.5],[1,0.5]];portConstraint=eastwest;whiteSpace=wrap;html=1;" parent="pZVOUU4Ujg4aQ-b8wELb-21" vertex="1">
          <mxGeometry y="216" width="340" height="26" as="geometry" />
        </mxCell>
        <mxCell id="pZVOUU4Ujg4aQ-b8wELb-31" value="+ SavingsTransaction (Date, String, String, String, double, BigDecimal, SavingsAccount)" style="text;strokeColor=none;fillColor=none;align=left;verticalAlign=top;spacingLeft=4;spacingRight=4;overflow=hidden;rotatable=0;points=[[0,0.5],[1,0.5]];portConstraint=eastwest;whiteSpace=wrap;html=1;" parent="pZVOUU4Ujg4aQ-b8wELb-21" vertex="1">
          <mxGeometry y="242" width="340" height="38" as="geometry" />
        </mxCell>
        <mxCell id="pZVOUU4Ujg4aQ-b8wELb-32" value="+ getId(): Long" style="text;strokeColor=none;fillColor=none;align=left;verticalAlign=top;spacingLeft=4;spacingRight=4;overflow=hidden;rotatable=0;points=[[0,0.5],[1,0.5]];portConstraint=eastwest;whiteSpace=wrap;html=1;" parent="pZVOUU4Ujg4aQ-b8wELb-21" vertex="1">
          <mxGeometry y="280" width="340" height="26" as="geometry" />
        </mxCell>
        <mxCell id="pZVOUU4Ujg4aQ-b8wELb-33" value="+ setId(Long): void" style="text;strokeColor=none;fillColor=none;align=left;verticalAlign=top;spacingLeft=4;spacingRight=4;overflow=hidden;rotatable=0;points=[[0,0.5],[1,0.5]];portConstraint=eastwest;whiteSpace=wrap;html=1;" parent="pZVOUU4Ujg4aQ-b8wELb-21" vertex="1">
          <mxGeometry y="306" width="340" height="26" as="geometry" />
        </mxCell>
        <mxCell id="pZVOUU4Ujg4aQ-b8wELb-34" value="+ getDate(): Date" style="text;strokeColor=none;fillColor=none;align=left;verticalAlign=top;spacingLeft=4;spacingRight=4;overflow=hidden;rotatable=0;points=[[0,0.5],[1,0.5]];portConstraint=eastwest;whiteSpace=wrap;html=1;" parent="pZVOUU4Ujg4aQ-b8wELb-21" vertex="1">
          <mxGeometry y="332" width="340" height="26" as="geometry" />
        </mxCell>
        <mxCell id="pZVOUU4Ujg4aQ-b8wELb-35" value="+ setDate(Date) : void" style="text;strokeColor=none;fillColor=none;align=left;verticalAlign=top;spacingLeft=4;spacingRight=4;overflow=hidden;rotatable=0;points=[[0,0.5],[1,0.5]];portConstraint=eastwest;whiteSpace=wrap;html=1;" parent="pZVOUU4Ujg4aQ-b8wELb-21" vertex="1">
          <mxGeometry y="358" width="340" height="26" as="geometry" />
        </mxCell>
        <mxCell id="pZVOUU4Ujg4aQ-b8wELb-36" value="+ getDescription(): String" style="text;strokeColor=none;fillColor=none;align=left;verticalAlign=top;spacingLeft=4;spacingRight=4;overflow=hidden;rotatable=0;points=[[0,0.5],[1,0.5]];portConstraint=eastwest;whiteSpace=wrap;html=1;" parent="pZVOUU4Ujg4aQ-b8wELb-21" vertex="1">
          <mxGeometry y="384" width="340" height="26" as="geometry" />
        </mxCell>
        <mxCell id="pZVOUU4Ujg4aQ-b8wELb-37" value="+ setDescription(String) : void" style="text;strokeColor=none;fillColor=none;align=left;verticalAlign=top;spacingLeft=4;spacingRight=4;overflow=hidden;rotatable=0;points=[[0,0.5],[1,0.5]];portConstraint=eastwest;whiteSpace=wrap;html=1;" parent="pZVOUU4Ujg4aQ-b8wELb-21" vertex="1">
          <mxGeometry y="410" width="340" height="26" as="geometry" />
        </mxCell>
        <mxCell id="pZVOUU4Ujg4aQ-b8wELb-38" value="+ getType(): String" style="text;strokeColor=none;fillColor=none;align=left;verticalAlign=top;spacingLeft=4;spacingRight=4;overflow=hidden;rotatable=0;points=[[0,0.5],[1,0.5]];portConstraint=eastwest;whiteSpace=wrap;html=1;" parent="pZVOUU4Ujg4aQ-b8wELb-21" vertex="1">
          <mxGeometry y="436" width="340" height="26" as="geometry" />
        </mxCell>
        <mxCell id="pZVOUU4Ujg4aQ-b8wELb-39" value="+ setType(String): void" style="text;strokeColor=none;fillColor=none;align=left;verticalAlign=top;spacingLeft=4;spacingRight=4;overflow=hidden;rotatable=0;points=[[0,0.5],[1,0.5]];portConstraint=eastwest;whiteSpace=wrap;html=1;" parent="pZVOUU4Ujg4aQ-b8wELb-21" vertex="1">
          <mxGeometry y="462" width="340" height="26" as="geometry" />
        </mxCell>
        <mxCell id="pZVOUU4Ujg4aQ-b8wELb-40" value="+ getStatus(): String" style="text;strokeColor=none;fillColor=none;align=left;verticalAlign=top;spacingLeft=4;spacingRight=4;overflow=hidden;rotatable=0;points=[[0,0.5],[1,0.5]];portConstraint=eastwest;whiteSpace=wrap;html=1;" parent="pZVOUU4Ujg4aQ-b8wELb-21" vertex="1">
          <mxGeometry y="488" width="340" height="26" as="geometry" />
        </mxCell>
        <mxCell id="pZVOUU4Ujg4aQ-b8wELb-41" value="+ setStatus(String): void" style="text;strokeColor=none;fillColor=none;align=left;verticalAlign=top;spacingLeft=4;spacingRight=4;overflow=hidden;rotatable=0;points=[[0,0.5],[1,0.5]];portConstraint=eastwest;whiteSpace=wrap;html=1;" parent="pZVOUU4Ujg4aQ-b8wELb-21" vertex="1">
          <mxGeometry y="514" width="340" height="26" as="geometry" />
        </mxCell>
        <mxCell id="pZVOUU4Ujg4aQ-b8wELb-42" value="+ getAmount(): double" style="text;strokeColor=none;fillColor=none;align=left;verticalAlign=top;spacingLeft=4;spacingRight=4;overflow=hidden;rotatable=0;points=[[0,0.5],[1,0.5]];portConstraint=eastwest;whiteSpace=wrap;html=1;" parent="pZVOUU4Ujg4aQ-b8wELb-21" vertex="1">
          <mxGeometry y="540" width="340" height="26" as="geometry" />
        </mxCell>
        <mxCell id="pZVOUU4Ujg4aQ-b8wELb-43" value="+ setAmount(double) : void" style="text;strokeColor=none;fillColor=none;align=left;verticalAlign=top;spacingLeft=4;spacingRight=4;overflow=hidden;rotatable=0;points=[[0,0.5],[1,0.5]];portConstraint=eastwest;whiteSpace=wrap;html=1;" parent="pZVOUU4Ujg4aQ-b8wELb-21" vertex="1">
          <mxGeometry y="566" width="340" height="26" as="geometry" />
        </mxCell>
        <mxCell id="pZVOUU4Ujg4aQ-b8wELb-44" value="+ getAvailableBalance(): BigDecimal" style="text;strokeColor=none;fillColor=none;align=left;verticalAlign=top;spacingLeft=4;spacingRight=4;overflow=hidden;rotatable=0;points=[[0,0.5],[1,0.5]];portConstraint=eastwest;whiteSpace=wrap;html=1;" parent="pZVOUU4Ujg4aQ-b8wELb-21" vertex="1">
          <mxGeometry y="592" width="340" height="26" as="geometry" />
        </mxCell>
        <mxCell id="pZVOUU4Ujg4aQ-b8wELb-45" value="+ setAvailableBalance(BigDecimal) : void" style="text;strokeColor=none;fillColor=none;align=left;verticalAlign=top;spacingLeft=4;spacingRight=4;overflow=hidden;rotatable=0;points=[[0,0.5],[1,0.5]];portConstraint=eastwest;whiteSpace=wrap;html=1;" parent="pZVOUU4Ujg4aQ-b8wELb-21" vertex="1">
          <mxGeometry y="618" width="340" height="26" as="geometry" />
        </mxCell>
        <mxCell id="pZVOUU4Ujg4aQ-b8wELb-46" value="+ getSavingsAccount(): SavingsAccount" style="text;strokeColor=none;fillColor=none;align=left;verticalAlign=top;spacingLeft=4;spacingRight=4;overflow=hidden;rotatable=0;points=[[0,0.5],[1,0.5]];portConstraint=eastwest;whiteSpace=wrap;html=1;" parent="pZVOUU4Ujg4aQ-b8wELb-21" vertex="1">
          <mxGeometry y="644" width="340" height="26" as="geometry" />
        </mxCell>
        <mxCell id="pZVOUU4Ujg4aQ-b8wELb-47" value="+ setSavingsAccount(SavingsAccount) : void" style="text;strokeColor=none;fillColor=none;align=left;verticalAlign=top;spacingLeft=4;spacingRight=4;overflow=hidden;rotatable=0;points=[[0,0.5],[1,0.5]];portConstraint=eastwest;whiteSpace=wrap;html=1;" parent="pZVOUU4Ujg4aQ-b8wELb-21" vertex="1">
          <mxGeometry y="670" width="340" height="26" as="geometry" />
        </mxCell>
        <mxCell id="pZVOUU4Ujg4aQ-b8wELb-48" style="edgeStyle=orthogonalEdgeStyle;rounded=0;orthogonalLoop=1;jettySize=auto;html=1;endArrow=none;endFill=0;" parent="1" source="mHUbQcksqps6T8qEqg67-58" target="pZVOUU4Ujg4aQ-b8wELb-21" edge="1">
          <mxGeometry relative="1" as="geometry">
            <mxPoint x="686" y="-249" as="sourcePoint" />
            <mxPoint x="756" y="-444" as="targetPoint" />
          </mxGeometry>
        </mxCell>
        <mxCell id="pZVOUU4Ujg4aQ-b8wELb-49" value="&lt;span style=&quot;color: rgb(0, 0, 0); font-family: Helvetica; font-size: 11px; font-style: normal; font-variant-ligatures: normal; font-variant-caps: normal; font-weight: 400; letter-spacing: normal; orphans: 2; text-align: left; text-indent: 0px; text-transform: none; widows: 2; word-spacing: 0px; -webkit-text-stroke-width: 0px; white-space: nowrap; background-color: rgb(255, 255, 255); text-decoration-thickness: initial; text-decoration-style: initial; text-decoration-color: initial; display: inline !important; float: none;&quot;&gt;1&lt;/span&gt;" style="text;whiteSpace=wrap;html=1;" parent="1" vertex="1">
          <mxGeometry x="686" y="-290" width="30" height="20" as="geometry" />
        </mxCell>
        <mxCell id="pZVOUU4Ujg4aQ-b8wELb-50" value="&lt;span style=&quot;color: rgb(0, 0, 0); font-family: Helvetica; font-size: 11px; font-style: normal; font-variant-ligatures: normal; font-variant-caps: normal; font-weight: 400; letter-spacing: normal; orphans: 2; text-align: left; text-indent: 0px; text-transform: none; widows: 2; word-spacing: 0px; -webkit-text-stroke-width: 0px; white-space: nowrap; background-color: rgb(255, 255, 255); text-decoration-thickness: initial; text-decoration-style: initial; text-decoration-color: initial; display: inline !important; float: none;&quot;&gt;*&lt;/span&gt;" style="text;whiteSpace=wrap;html=1;" parent="1" vertex="1">
          <mxGeometry x="744" y="-114" width="30" height="20" as="geometry" />
        </mxCell>
      </root>
    </mxGraphModel>
  </diagram>
  <diagram id="GmI4gIGNqUHfbvJ93uej" name="activity">
    <mxGraphModel dx="1344" dy="723" grid="1" gridSize="10" guides="1" tooltips="1" connect="1" arrows="1" fold="1" page="1" pageScale="1" pageWidth="827" pageHeight="1169" math="0" shadow="0">
      <root>
        <mxCell id="0" />
        <mxCell id="1" parent="0" />
        <mxCell id="zkjqlZ5u83W6NX5Zqx8o-7" value="" style="edgeStyle=orthogonalEdgeStyle;rounded=0;orthogonalLoop=1;jettySize=auto;html=1;" edge="1" parent="1" source="zkjqlZ5u83W6NX5Zqx8o-3" target="zkjqlZ5u83W6NX5Zqx8o-5">
          <mxGeometry relative="1" as="geometry" />
        </mxCell>
        <mxCell id="zkjqlZ5u83W6NX5Zqx8o-3" value="" style="rounded=0;whiteSpace=wrap;html=1;" vertex="1" parent="1">
          <mxGeometry x="210" y="100" width="120" height="60" as="geometry" />
        </mxCell>
        <mxCell id="zkjqlZ5u83W6NX5Zqx8o-6" value="" style="edgeStyle=orthogonalEdgeStyle;rounded=0;orthogonalLoop=1;jettySize=auto;html=1;" edge="1" parent="1" source="zkjqlZ5u83W6NX5Zqx8o-4" target="zkjqlZ5u83W6NX5Zqx8o-3">
          <mxGeometry relative="1" as="geometry" />
        </mxCell>
        <mxCell id="zkjqlZ5u83W6NX5Zqx8o-4" value="" style="ellipse;whiteSpace=wrap;html=1;aspect=fixed;" vertex="1" parent="1">
          <mxGeometry x="250" y="30" width="40" height="40" as="geometry" />
        </mxCell>
        <mxCell id="zkjqlZ5u83W6NX5Zqx8o-9" value="" style="edgeStyle=orthogonalEdgeStyle;rounded=0;orthogonalLoop=1;jettySize=auto;html=1;" edge="1" parent="1" source="zkjqlZ5u83W6NX5Zqx8o-5" target="zkjqlZ5u83W6NX5Zqx8o-8">
          <mxGeometry relative="1" as="geometry" />
        </mxCell>
        <mxCell id="zkjqlZ5u83W6NX5Zqx8o-5" value="" style="rounded=0;whiteSpace=wrap;html=1;" vertex="1" parent="1">
          <mxGeometry x="210" y="190" width="120" height="60" as="geometry" />
        </mxCell>
        <mxCell id="zkjqlZ5u83W6NX5Zqx8o-11" value="" style="edgeStyle=orthogonalEdgeStyle;rounded=0;orthogonalLoop=1;jettySize=auto;html=1;" edge="1" parent="1" source="zkjqlZ5u83W6NX5Zqx8o-8" target="zkjqlZ5u83W6NX5Zqx8o-10">
          <mxGeometry relative="1" as="geometry" />
        </mxCell>
        <mxCell id="zkjqlZ5u83W6NX5Zqx8o-8" value="" style="rhombus;whiteSpace=wrap;html=1;rounded=0;" vertex="1" parent="1">
          <mxGeometry x="210" y="290" width="120" height="60" as="geometry" />
        </mxCell>
        <mxCell id="zkjqlZ5u83W6NX5Zqx8o-10" value="" style="rhombus;whiteSpace=wrap;html=1;rounded=0;" vertex="1" parent="1">
          <mxGeometry x="210" y="380" width="120" height="60" as="geometry" />
        </mxCell>
      </root>
    </mxGraphModel>
  </diagram>
</mxfile>
